<svg xmlns="http://www.w3.org/2000/svg" width="263" height="94" viewBox="0 0 263 94">
    <g fill="none" fill-rule="evenodd">
        <text fill="#FFF" font-family="Roboto-Regular, Roboto" font-size="15.5">
            <tspan x="0" y="90">Комплексные решения для бизнеса </tspan>
        </text>
        <g fill-rule="nonzero">
            <path fill="#EB2329" d="M50.112 53.405H4.087c-1.955 0-3.554-1.605-3.554-3.567v-46.2C.533 1.676 2.133.07 4.087.07h46.025c1.955 0 3.554 1.606 3.554 3.568v46.2c0 1.962-1.6 3.567-3.554 3.567z"/>
            <path fill="#FFF" d="M44.959 5.243c-.178-1.07-7.641.892-13.15 3.568-5.331 2.675-10.307 6.778-11.906 8.562-2.31 2.319-11.196 11.416-11.196 21.94 0 7.314 5.865 8.384 8.708 7.67 6.397-1.426 13.15-10.524 15.46-13.378.178-.178.533 0 .355.179-.533 2.319-2.31 8.205 1.422 9.097 6.575 1.605 19.014-9.99 19.014-9.99v-1.605s-12.972 9.098-16.882 6.779c-3.198-1.784 3.2-13.379 3.2-13.379s1.065-1.427.532-1.783c-.71-.535-1.955.713-1.955.713s-17.059 18.73-21.324 14.449c-1.421-1.606-.888-8.562 3.91-14.984 2.132-2.854 5.508-7.313 9.951-10.703 3.02-2.319 6.22-4.102 9.063-5.173 3.198-1.248 4.975-1.427 4.798-1.962z"/>
            <g fill="#FFF">
                <path d="M86.186 53.405l-1.066-9.454h-6.398l-1.066 9.454h-5.864l6.397-51.194h7.286l6.397 51.194h-5.686zm-1.6-14.805l-2.665-25.33h-.178L79.078 38.6h5.508zM103.423 53.405V20.227h-2.666v13.735c0 9.276-.355 13.022-1.599 15.697-1.6 3.568-4.087 3.746-5.509 3.746h-.71V48.59h.888c.889 0 1.6-1.248 1.955-2.497.533-1.962.71-5.351.71-19.443V15.768h12.084v37.459h-5.153v.178zM112.841 15.946h4.976v15.34h2.132c1.6 0 4.087.357 5.687 2.498 1.421 1.962 1.6 4.816 1.6 6.421v5.352c0 2.854-.534 5.351-2.311 6.6-1.422 1.248-3.199 1.248-4.798 1.248h-7.286v-37.46zm6.398 33.357c.355 0 1.599 0 2.31-.892.533-.535.71-1.606.71-3.033v-5.173c0-2.319-.177-3.032-.355-3.567-.71-1.249-1.777-1.427-2.665-1.427h-1.244v13.913h1.244v.179zM139.674 64.286V50.908c-1.599 2.854-3.554 3.21-4.62 3.21-1.777 0-3.02-.891-3.732-2.496-.888-1.606-.888-3.211-.888-4.817V22.368c0-1.784 0-3.925 1.244-5.709.888-1.07 2.132-1.605 3.198-1.605 1.422 0 3.554 1.07 4.798 3.21V4.887h4.976v13.379c1.244-2.14 3.199-3.21 4.798-3.21 1.244 0 2.488.534 3.199 1.604 1.244 1.606 1.244 3.746 1.244 5.709v24.437c0 1.606 0 3.746-.889 5.173-.71 1.249-2.132 2.14-3.732 2.14-1.066 0-2.843-.356-4.62-3.21v13.378h-4.976zm0-40.491c0-1.606-.355-2.498-.888-2.854-.533-.714-1.244-.892-1.955-.892-.71 0-1.066.356-1.244.892-.178.535-.355 1.248-.355 3.21v20.335c0 .714 0 2.676.177 3.211.178.714.711 1.07 1.422 1.07.889 0 1.955-.535 2.488-1.783 0-.179.355-1.07.355-3.568V23.795zm4.976 19.8c0 2.497.355 3.21.355 3.567.356 1.249 1.6 1.784 2.488 1.784.711 0 1.244-.357 1.422-1.07.178-.535.178-2.498.178-3.211V24.33c0-1.962 0-2.676-.356-3.211a1.337 1.337 0 0 0-1.244-.892c-.533 0-1.421.178-1.954.892-.356.535-.889 1.427-.889 2.854v19.622zM167.396 53.405l-.71-2.319c-.534.892-1.245 1.606-1.956 2.141-.888.714-1.954.892-3.02.892-1.6 0-2.666-.357-3.555-1.784-1.066-1.605-1.244-3.39-1.244-4.638v-5.53c0-2.853.356-4.637 3.021-7.313 1.6-1.605 3.021-2.854 6.398-5.351v-6.779c0-.713 0-1.427-.356-1.962-.355-.892-1.066-.892-1.777-.892-.71 0-1.421.179-1.777.892-.355.535-.355 1.249-.355 1.962v5.887h-4.976v-5.173c0-1.784 0-4.103 1.6-5.887.71-.892 2.31-2.319 5.686-2.319 3.732 0 5.331 1.963 5.686 2.32 1.244 1.783 1.422 4.28 1.422 6.064v29.79h-4.087zm-5.153-14.091c-.178.356-.356 1.427-.356 3.567v3.033c0 1.605.178 2.318.356 2.675.355.714.71.892 1.243.892 1.067 0 1.6-.535 2.133-1.249.71-1.248.888-2.14.888-3.21V34.676c-1.066.713-3.554 3.032-4.264 4.638zM197.605 33.427v10.168c0 2.319.178 3.21.356 3.567.355.714 1.244 1.427 2.665 1.427 1.244 0 1.955-.357 2.488-1.427.356-.713.533-1.605.533-3.567v-8.74c0-2.32-.177-3.569-.71-4.46-.356-.536-1.422-1.784-4.088-1.606l-3.91.179v-5.53h4.621c1.244 0 2.488 0 3.199-1.962.355-.892.533-2.676.533-3.568v-7.492c0-.892-.178-1.962-.533-2.497-.356-.535-.889-1.249-2.31-1.249-1.067 0-1.955.535-2.31 1.07 0 0-.534.892-.534 3.211v8.206h-5.686v-7.314c0-1.962 0-5.53 1.955-7.848 1.421-1.784 3.91-2.854 6.397-2.854 3.199 0 5.331 1.427 6.397 2.854 1.955 2.497 2.133 5.708 2.133 7.67v5.708c0 1.427-.178 3.924-1.067 5.351-.533 1.07-1.777 2.14-3.554 2.854v.179c1.422.357 2.488 1.248 3.2 2.319 1.598 1.962 1.598 4.102 1.598 6.243v6.957c0 5.351-.888 7.492-1.599 8.74-1.244 2.32-3.554 3.568-7.286 3.568-2.843 0-5.33-1.07-6.93-3.211-1.777-2.497-1.777-5.887-1.777-8.205V33.07h6.22v.357zM213.42 15.946h8.175c1.6 0 3.732.535 4.976 2.854.888 1.605 1.066 3.032 1.066 4.638v2.854c0 .713 0 3.21-1.066 4.816-.355.714-1.244 1.606-2.666 1.962 1.067.357 2.31 1.249 3.021 2.498.889 1.427 1.067 3.567 1.067 5.173v4.637c0 1.606-.178 3.746-1.244 5.352-1.6 2.319-3.732 2.675-6.398 2.675h-6.93v-37.46zm6.576 14.984c.533 0 1.6 0 2.132-.714.533-.713.533-1.962.533-2.14v-4.817c0-.713-.177-1.783-.71-2.318-.356-.357-1.244-.714-1.955-.714h-1.6V30.93h1.6zm0 18.194c.71 0 1.6 0 2.31-.892.533-.713.71-1.962.71-3.21v-5.887c0-.892 0-2.14-.71-3.032-.888-1.249-1.777-1.07-2.665-1.07h-1.067v13.913h1.422v.178zM231.014 59.649c.888.178 1.421.178 2.31.178.71 0 1.954 0 2.487-1.07.356-.892.178-2.14-.177-4.46l-5.509-38.351h4.976l2.488 26.4h.177l1.955-26.4h4.976l-4.443 41.919c-.178 1.605-.355 3.39-1.6 4.816-1.243 1.605-3.02 1.962-4.264 1.962a10.31 10.31 0 0 1-3.376-.535v-4.46zM261.756 50.016c0 1.249.178 1.962.889 3.211v.178h-5.331c-.178-.535-.534-1.962-.534-3.567v-9.811c0-.892 0-2.854-1.066-3.746-.71-.535-1.777-.713-2.31-.713h-1.066v17.837h-4.976v-37.46h4.976v15.341h2.132c1.422 0 1.422-1.783 1.422-2.318v-8.384c0-1.249 0-2.676 1.244-3.746 1.066-.892 2.488-.892 3.198-.892h1.955v4.46h-.71c-1.067 0-.89.713-.89 1.605v7.67c0 .714-.355 1.962-.71 2.676-.355.357-.888 1.07-1.777 1.248v.179c.533.357 1.6.892 2.132 1.605 1.244 1.427 1.244 4.103 1.244 4.995v9.632h.178z"/>
            </g>
        </g>
    </g>
</svg>
