<svg xmlns="http://www.w3.org/2000/svg" xmlns:xlink="http://www.w3.org/1999/xlink" width="58" height="58" viewBox="0 0 58 58">
    <defs>
        <ellipse id="a" cx="27" cy="27" rx="27" ry="27"/>
        <mask id="b" width="58" height="58" x="-2" y="-2">
            <path fill="#fff" d="M-2-2h58v58H-2z"/>
            <use xlink:href="#a"/>
        </mask>
    </defs>
    <g fill="none" fill-rule="evenodd">
        <g transform="translate(2 2)">
            <use fill="#EB2329" xlink:href="#a"/>
            <use stroke="#FFF" stroke-width="4" mask="url(#b)" xlink:href="#a"/>
        </g>
        <g fill="#FFF" fill-rule="nonzero">
            <path d="M47.18 22.473c-1.163-1.26-2.82-1.957-4.661-1.957h-4.433V18.12a1.06 1.06 0 0 0-1.057-1.057H15.914a1.06 1.06 0 0 0-1.057 1.057v3.684H10.74a1.06 1.06 0 0 0-1.057 1.057 1.06 1.06 0 0 0 1.057 1.058h5.182a1.06 1.06 0 0 0 1.057-1.058v-3.683h19v16.576h-9.958c-.044 0-.088 0-.132.009a3.564 3.564 0 0 0-3.296-2.23 3.549 3.549 0 0 0-3.296 2.247 1.016 1.016 0 0 0-.23-.026H16.98V32.06a1.06 1.06 0 0 0-1.057-1.057H10.74a1.06 1.06 0 0 0-1.057 1.057 1.06 1.06 0 0 0 1.057 1.058h4.116v3.684a1.06 1.06 0 0 0 1.057 1.057H19.13a3.545 3.545 0 0 0 3.464 2.767 3.553 3.553 0 0 0 3.463-2.767H38.73a3.562 3.562 0 0 0 3.464 2.767 3.553 3.553 0 0 0 3.463-2.767h2.362a1.06 1.06 0 0 0 1.057-1.057v-8.786c0-2.283-.66-4.204-1.894-5.543zM22.595 38.52a1.437 1.437 0 1 1 0-2.873 1.437 1.437 0 0 1 0 2.873zm19.599 0a1.437 1.437 0 1 1 1.436-1.436 1.448 1.448 0 0 1-1.436 1.436zm4.767-2.767h-1.48a3.566 3.566 0 0 0-3.287-2.22c-1.48 0-2.759.916-3.287 2.22h-.811V22.63h4.433c2.776 0 4.432 2.018 4.432 5.393v7.729z"/>
            <path d="M24.162 29.443a1.058 1.058 0 1 0 1.499 1.498l2.723-2.723.008-.009c.018-.026.045-.044.062-.07.009-.018.018-.026.027-.044.008-.018.017-.027.035-.044l.026-.053c.01-.018.018-.026.027-.044l.026-.053c.009-.018.018-.026.018-.044.009-.018.009-.035.017-.053.01-.018.01-.035.018-.044.009-.018.009-.035.009-.053 0-.017.009-.035.009-.053 0-.017.008-.035.008-.061 0-.018.01-.027.01-.044a.85.85 0 0 0 0-.212c0-.018 0-.026-.01-.044 0-.018-.008-.035-.008-.062 0-.017-.01-.035-.01-.053 0-.017-.008-.035-.008-.052-.009-.018-.009-.036-.018-.045-.008-.017-.008-.035-.017-.052-.009-.018-.018-.027-.018-.044l-.026-.053c-.01-.018-.018-.027-.027-.044l-.026-.053c-.009-.018-.018-.027-.035-.044-.01-.018-.018-.027-.027-.044-.017-.027-.044-.044-.062-.07l-.008-.01-2.591-2.59a1.058 1.058 0 1 0-1.498 1.498l.784.784H7.057A1.06 1.06 0 0 0 6 27.416a1.06 1.06 0 0 0 1.057 1.058H25.07l-.908.97z"/>
        </g>
    </g>
</svg>
