<svg xmlns="http://www.w3.org/2000/svg" xmlns:xlink="http://www.w3.org/1999/xlink" width="58" height="58" viewBox="0 0 58 58">
    <defs>
        <ellipse id="a" cx="27" cy="27" rx="27" ry="27"/>
        <mask id="b" width="58" height="58" x="-2" y="-2">
            <path fill="#fff" d="M-2-2h58v58H-2z"/>
            <use xlink:href="#a"/>
        </mask>
    </defs>
    <g fill="none" fill-rule="evenodd">
        <g transform="translate(2 2)">
            <use fill="#EB2329" xlink:href="#a"/>
            <use stroke="#FFF" stroke-width="4" mask="url(#b)" xlink:href="#a"/>
        </g>
        <g fill="#FFF" fill-rule="nonzero">
            <path d="M38.951 21.465c4.655 0 8.161-1.81 8.161-4.212 0-2.402-3.506-4.212-8.16-4.212-4.656 0-8.162 1.81-8.162 4.212 0 2.403 3.506 4.212 8.161 4.212zm0-6.614c3.882 0 6.36 1.426 6.36 2.41 0 .983-2.478 2.41-6.36 2.41-3.881 0-6.359-1.427-6.359-2.41 0-.984 2.478-2.41 6.36-2.41zM46.429 21.548a.901.901 0 0 0-1.156.533c-.383 1.043-2.906 2.17-6.314 2.17-3.319 0-5.804-1.067-6.284-2.095a.906.906 0 0 0-1.201-.436.906.906 0 0 0-.436 1.201c.879 1.877 4.062 3.131 7.92 3.131 1.84 0 3.627-.3 5.046-.856 1.562-.608 2.59-1.471 2.966-2.5a.906.906 0 0 0-.541-1.148zM46.429 26.142a.901.901 0 0 0-1.156.533c-.383 1.044-2.906 2.17-6.314 2.17-3.319 0-5.804-1.066-6.284-2.095a.906.906 0 0 0-1.201-.435.906.906 0 0 0-.436 1.201c.879 1.877 4.062 3.13 7.92 3.13 1.84 0 3.627-.3 5.046-.855 1.562-.608 2.59-1.471 2.966-2.5a.906.906 0 0 0-.541-1.149zM46.429 30.73a.901.901 0 0 0-1.156.533c-.383 1.043-2.906 2.17-6.314 2.17-3.319 0-5.804-1.067-6.284-2.095a.906.906 0 0 0-1.201-.436.906.906 0 0 0-.436 1.201c.879 1.877 4.062 3.131 7.92 3.131 1.84 0 3.627-.3 5.046-.856 1.562-.608 2.59-1.471 2.966-2.5a.906.906 0 0 0-.541-1.149zM46.429 35.324a.901.901 0 0 0-1.156.533c-.383 1.044-2.906 2.17-6.314 2.17-3.319 0-5.804-1.066-6.284-2.095a.906.906 0 0 0-1.201-.435.906.906 0 0 0-.436 1.201c.879 1.877 4.062 3.13 7.92 3.13 1.84 0 3.627-.3 5.046-.855 1.562-.608 2.59-1.472 2.966-2.5a.9.9 0 0 0-.541-1.149zM46.429 39.911a.901.901 0 0 0-1.156.533c-.383 1.044-2.906 2.17-6.314 2.17-3.319 0-5.804-1.066-6.284-2.094a.906.906 0 0 0-1.201-.436.906.906 0 0 0-.436 1.201c.879 1.877 4.062 3.131 7.92 3.131 1.84 0 3.627-.3 5.046-.856 1.562-.608 2.59-1.471 2.966-2.5a.906.906 0 0 0-.541-1.149zM26.631 30.73a.901.901 0 0 0-1.156.533c-.383 1.043-2.906 2.17-6.314 2.17-3.319 0-5.804-1.067-6.284-2.095a.906.906 0 0 0-1.201-.436.906.906 0 0 0-.436 1.201c.879 1.877 4.062 3.131 7.92 3.131 1.84 0 3.627-.3 5.046-.856 1.562-.608 2.59-1.471 2.966-2.5a.906.906 0 0 0-.54-1.149zM26.631 35.324a.901.901 0 0 0-1.156.533c-.383 1.044-2.906 2.17-6.314 2.17-3.319 0-5.804-1.066-6.284-2.095a.906.906 0 0 0-1.201-.435.906.906 0 0 0-.436 1.201c.879 1.877 4.062 3.13 7.92 3.13 1.84 0 3.627-.3 5.046-.855 1.562-.608 2.59-1.472 2.966-2.5a.9.9 0 0 0-.54-1.149zM26.631 39.911a.901.901 0 0 0-1.156.533c-.383 1.044-2.906 2.17-6.314 2.17-3.319 0-5.804-1.066-6.284-2.094a.906.906 0 0 0-1.201-.436.906.906 0 0 0-.436 1.201c.879 1.877 4.062 3.131 7.92 3.131 1.84 0 3.627-.3 5.046-.856 1.562-.608 2.59-1.471 2.966-2.5a.906.906 0 0 0-.54-1.149zM19.16 22.223c-4.654 0-8.16 1.81-8.16 4.212 0 2.403 3.506 4.212 8.16 4.212 4.656 0 8.162-1.81 8.162-4.212 0-2.402-3.506-4.212-8.161-4.212zm0 6.622c-3.88 0-6.358-1.426-6.358-2.41 0-.983 2.477-2.41 6.359-2.41 3.881 0 6.359 1.427 6.359 2.41 0 .984-2.478 2.41-6.36 2.41z"/>
        </g>
    </g>
</svg>
