<svg xmlns="http://www.w3.org/2000/svg" xmlns:xlink="http://www.w3.org/1999/xlink" width="58" height="58" viewBox="0 0 58 58">
    <defs>
        <ellipse id="a" cx="27" cy="27" rx="27" ry="27"/>
        <mask id="b" width="58" height="58" x="-2" y="-2">
            <path fill="#fff" d="M-2-2h58v58H-2z"/>
            <use xlink:href="#a"/>
        </mask>
    </defs>
    <g fill="none" fill-rule="evenodd">
        <g transform="translate(2 2)">
            <use fill="#EB2329" xlink:href="#a"/>
            <use stroke="#FFF" stroke-width="4" mask="url(#b)" xlink:href="#a"/>
        </g>
        <g fill="#FFF" fill-rule="nonzero">
            <path d="M42.874 16.422a18.36 18.36 0 0 0-13.063-5.413 18.332 18.332 0 0 0-13.23 5.579c-.381.39-.373 1.02.017 1.409.39.381 1.02.373 1.409-.017a16.364 16.364 0 0 1 11.804-4.973c9.093-.008 16.487 7.386 16.487 16.479S38.904 45.973 29.81 45.973c-9.094 0-16.487-7.394-16.487-16.487v-.208l1.64 1.642a.998.998 0 0 0 1.41 0 .996.996 0 0 0 0-1.41l-3.332-3.34a.996.996 0 0 0-1.41 0l-3.34 3.34a.996.996 0 1 0 1.41 1.41l1.64-1.642v.208a18.36 18.36 0 0 0 5.413 13.063 18.36 18.36 0 0 0 13.064 5.413 18.36 18.36 0 0 0 13.063-5.413 18.351 18.351 0 0 0 5.405-13.063 18.36 18.36 0 0 0-5.413-13.064z"/>
            <path d="M29.81 18.743a5.865 5.865 0 0 0-5.86 5.86v2.827h-1.823a.998.998 0 0 0-.995.995v9.922c0 .547.448.994.995.994h15.376a.998.998 0 0 0 .995-.994v-9.914a.998.998 0 0 0-.995-.995h-1.824v-2.826a5.88 5.88 0 0 0-5.868-5.869zm-3.87 5.869a3.875 3.875 0 0 1 3.87-3.871 3.88 3.88 0 0 1 3.872 3.87v2.827H25.94v-2.826zm10.568 12.74H23.121v-7.933h13.387v7.933z"/>
        </g>
    </g>
</svg>
