<svg xmlns="http://www.w3.org/2000/svg" xmlns:xlink="http://www.w3.org/1999/xlink" width="58" height="58" viewBox="0 0 58 58">
    <defs>
        <ellipse id="a" cx="27" cy="27" rx="27" ry="27"/>
        <mask id="b" width="58" height="58" x="-2" y="-2">
            <path fill="#fff" d="M-2-2h58v58H-2z"/>
            <use xlink:href="#a"/>
        </mask>
    </defs>
    <g fill="none" fill-rule="evenodd">
        <g transform="translate(2 2)">
            <use fill="#EB2329" xlink:href="#a"/>
            <use stroke="#FFF" stroke-width="4" mask="url(#b)" xlink:href="#a"/>
        </g>
        <g fill="#FFF" fill-rule="nonzero">
            <path d="M45.136 25.212l-2.525-.428a14.259 14.259 0 0 0-1.015-2.45l1.488-2.082a2.216 2.216 0 0 0-.24-2.864l-2.24-2.24a2.206 2.206 0 0 0-2.856-.24l-2.09 1.488a14.11 14.11 0 0 0-2.54-1.044l-.42-2.496A2.22 2.22 0 0 0 30.503 11H27.34a2.22 2.22 0 0 0-2.195 1.856l-.435 2.556c-.842.263-1.661.609-2.443 1.03l-2.067-1.489a2.206 2.206 0 0 0-1.293-.413c-.593 0-1.157.233-1.57.654l-2.247 2.24a2.225 2.225 0 0 0-.241 2.863l1.503 2.112c-.413.789-.744 1.608-1 2.457l-2.495.421A2.22 2.22 0 0 0 11 27.482v3.164a2.22 2.22 0 0 0 1.856 2.195l2.556.435c.263.842.608 1.661 1.03 2.443l-1.481 2.06a2.216 2.216 0 0 0 .24 2.863l2.24 2.24a2.206 2.206 0 0 0 2.856.24l2.112-1.503c.759.398 1.556.721 2.375.977l.42 2.525a2.22 2.22 0 0 0 2.195 1.857h3.172a2.22 2.22 0 0 0 2.194-1.857l.429-2.525c.849-.263 1.668-.601 2.45-1.015l2.082 1.488c.375.27.826.414 1.292.414.594 0 1.15-.233 1.571-.654l2.24-2.24a2.225 2.225 0 0 0 .24-2.863l-1.488-2.09c.414-.789.76-1.608 1.015-2.45l2.525-.42a2.22 2.22 0 0 0 1.856-2.195v-3.164a2.193 2.193 0 0 0-1.84-2.195zm-.173 5.359c0 .098-.067.18-.165.195l-3.157.526c-.398.068-.714.361-.811.744a12.031 12.031 0 0 1-1.308 3.15c-.203.345-.188.774.045 1.104l1.856 2.616a.205.205 0 0 1-.022.255l-2.24 2.24a.19.19 0 0 1-.143.06.185.185 0 0 1-.112-.038l-2.608-1.856a1.016 1.016 0 0 0-1.105-.045 12.031 12.031 0 0 1-3.15 1.308.998.998 0 0 0-.743.811l-.534 3.157a.195.195 0 0 1-.195.165h-3.164a.195.195 0 0 1-.196-.165l-.526-3.157a1.009 1.009 0 0 0-.744-.811 12.493 12.493 0 0 1-3.081-1.263 1.04 1.04 0 0 0-.511-.135.99.99 0 0 0-.587.188l-2.63 1.871a.224.224 0 0 1-.113.038.201.201 0 0 1-.143-.06l-2.24-2.24a.204.204 0 0 1-.022-.256l1.849-2.593c.233-.33.248-.766.045-1.112a11.918 11.918 0 0 1-1.323-3.141 1.03 1.03 0 0 0-.811-.744l-3.18-.542a.195.195 0 0 1-.165-.195v-3.164c0-.098.068-.18.166-.195l3.134-.527c.398-.067.721-.36.819-.751a12.02 12.02 0 0 1 1.285-3.157c.203-.345.18-.774-.053-1.097l-1.871-2.63a.205.205 0 0 1 .023-.256l2.24-2.24a.19.19 0 0 1 .142-.06c.045 0 .083.015.113.038l2.593 1.849c.33.233.766.248 1.112.045a11.918 11.918 0 0 1 3.141-1.323 1.03 1.03 0 0 0 .745-.812l.54-3.179a.195.195 0 0 1 .196-.165h3.164c.098 0 .18.067.196.165l.526 3.134c.067.398.36.722.751.82 1.135.285 2.217.728 3.224 1.322.346.203.775.188 1.105-.045l2.593-1.864a.224.224 0 0 1 .113-.037c.03 0 .09.007.143.06l2.24 2.24a.204.204 0 0 1 .022.255l-1.856 2.608c-.233.323-.248.759-.046 1.105a12.031 12.031 0 0 1 1.308 3.149c.098.39.421.684.812.744l3.156.533a.195.195 0 0 1 .166.196v3.164h-.008z"/>
            <path d="M28.992 21.221a7.769 7.769 0 0 0-7.763 7.764 7.769 7.769 0 0 0 7.763 7.764 7.769 7.769 0 0 0 7.764-7.764 7.769 7.769 0 0 0-7.764-7.764zm0 13.498a5.738 5.738 0 0 1-5.734-5.734 5.738 5.738 0 0 1 5.734-5.734 5.738 5.738 0 0 1 5.735 5.734 5.738 5.738 0 0 1-5.735 5.734z"/>
        </g>
    </g>
</svg>
