<svg xmlns="http://www.w3.org/2000/svg" width="101" height="25" viewBox="0 0 101 25">
    <g fill="none" fill-rule="nonzero">
        <path fill="#EB2329" d="M19.274 20.54H1.572a1.374 1.374 0 0 1-1.367-1.372V1.4C.205.644.82.027 1.572.027h17.702c.752 0 1.367.617 1.367 1.372v17.77c0 .754-.615 1.372-1.367 1.372z"/>
        <path fill="#FFF" d="M17.292 2.017c-.069-.412-2.94.343-5.058 1.372-2.05 1.029-3.964 2.607-4.58 3.293-.888.892-4.305 4.39-4.305 8.439 0 2.812 2.255 3.224 3.349 2.95 2.46-.55 5.058-4.048 5.946-5.146.069-.068.205 0 .137.069-.205.892-.889 3.156.547 3.499 2.529.617 7.313-3.842 7.313-3.842v-.618s-4.99 3.5-6.493 2.607c-1.23-.686 1.23-5.145 1.23-5.145s.41-.55.205-.686c-.273-.206-.752.274-.752.274S8.27 16.287 6.63 14.64c-.547-.617-.342-3.293 1.503-5.763.82-1.097 2.12-2.813 3.828-4.116 1.162-.892 2.392-1.578 3.485-1.99 1.23-.48 1.914-.549 1.846-.754z"/>
        <g fill="#FFF">
            <path d="M33.148 20.54l-.41-3.636h-2.46l-.41 3.637h-2.256L30.072.85h2.803l2.46 19.69h-2.187zm-.615-5.694l-1.025-9.742h-.068l-1.025 9.742h2.118zM39.778 20.54V7.78h-1.025v5.282c0 3.568-.137 5.009-.615 6.038-.615 1.372-1.572 1.44-2.119 1.44h-.273v-1.852h.341c.342 0 .615-.48.752-.96.205-.755.274-2.059.274-7.479V6.064h4.647v14.408h-1.982v.069zM43.4 6.133h1.914v5.9h.82c.615 0 1.572.137 2.187.96.547.755.616 1.853.616 2.47v2.059c0 1.098-.205 2.058-.889 2.538-.547.48-1.23.48-1.845.48H43.4V6.134zm2.461 12.83c.137 0 .615 0 .888-.343.206-.206.274-.618.274-1.167v-1.99c0-.891-.068-1.166-.137-1.372-.273-.48-.683-.548-1.025-.548h-.478v5.351h.478v.069zM53.72 24.726V19.58c-.614 1.098-1.366 1.235-1.776 1.235-.684 0-1.162-.343-1.435-.96-.342-.618-.342-1.235-.342-1.853v-9.4c0-.685 0-1.508.478-2.195.342-.411.82-.617 1.23-.617.547 0 1.367.412 1.846 1.235V1.879h1.914v5.146c.478-.823 1.23-1.235 1.845-1.235.478 0 .957.206 1.23.617.479.618.479 1.441.479 2.196v9.4c0 .617 0 1.44-.342 1.989-.273.48-.82.823-1.435.823-.41 0-1.094-.137-1.777-1.235v5.146H53.72zm0-15.574c0-.618-.136-.96-.34-1.098-.206-.274-.48-.343-.753-.343s-.41.137-.478.343c-.068.206-.137.48-.137 1.235v7.821c0 .275 0 1.03.069 1.235.068.275.273.412.546.412.342 0 .752-.206.957-.686 0-.069.137-.412.137-1.372V9.152zm1.915 7.615c0 .96.136 1.235.136 1.372.137.48.615.686.957.686.274 0 .479-.137.547-.411.068-.206.068-.96.068-1.235V9.358c0-.755 0-1.03-.136-1.235a.514.514 0 0 0-.479-.343c-.205 0-.547.068-.752.343a1.875 1.875 0 0 0-.341 1.097v7.547zM64.383 20.54l-.273-.891a2.92 2.92 0 0 1-.752.823c-.342.274-.752.343-1.162.343-.615 0-1.025-.137-1.367-.686-.41-.618-.478-1.304-.478-1.784v-2.127c0-1.097.136-1.783 1.161-2.813.616-.617 1.162-1.097 2.461-2.058V8.74c0-.274 0-.549-.137-.755-.136-.343-.41-.343-.683-.343-.274 0-.547.069-.684.343-.136.206-.136.48-.136.755v2.264h-1.914v-1.99c0-.686 0-1.577.615-2.263.273-.344.889-.892 2.187-.892 1.435 0 2.05.754 2.187.892.479.686.547 1.646.547 2.332v11.458h-1.572zm-1.982-5.42c-.068.138-.137.55-.137 1.373v1.166c0 .618.069.892.137 1.03.137.274.273.342.478.342.41 0 .616-.206.82-.48.274-.48.342-.823.342-1.235v-3.98c-.41.275-1.367 1.167-1.64 1.785zM76.002 12.857v3.91c0 .892.068 1.235.137 1.372.136.275.478.55 1.025.55.478 0 .752-.138.957-.55.137-.274.205-.617.205-1.372v-3.362c0-.891-.068-1.372-.274-1.715-.136-.206-.546-.686-1.571-.617l-1.504.068V9.015h1.777c.478 0 .957 0 1.23-.755.137-.343.205-1.03.205-1.372V4.006c0-.343-.068-.754-.205-.96-.137-.206-.342-.48-.888-.48-.41 0-.752.205-.889.411 0 0-.205.343-.205 1.235v3.156h-2.187V4.555c0-.755 0-2.127.752-3.019C75.114.85 76.07.44 77.027.44c1.23 0 2.05.549 2.46 1.097.753.96.821 2.196.821 2.95v2.196c0 .549-.068 1.51-.41 2.058-.205.412-.684.823-1.367 1.098v.068c.547.138.957.48 1.23.892.615.755.615 1.578.615 2.402v2.675c0 2.058-.341 2.882-.615 3.362-.478.892-1.367 1.372-2.802 1.372-1.094 0-2.05-.411-2.666-1.235-.683-.96-.683-2.264-.683-3.156V12.72h2.392v.138zM82.085 6.133h3.144c.615 0 1.435.206 1.914 1.098.341.617.41 1.166.41 1.784v1.097c0 .275 0 1.235-.41 1.853-.137.274-.479.617-1.026.754.41.138.889.48 1.162.96.342.55.41 1.373.41 1.99v1.784c0 .618-.068 1.441-.478 2.058-.615.892-1.435 1.03-2.46 1.03h-2.666V6.133zm2.529 5.763c.205 0 .615 0 .82-.274.205-.275.205-.755.205-.824V8.946c0-.274-.068-.686-.273-.892-.137-.137-.479-.274-.752-.274h-.615v4.116h.615zm0 6.998c.273 0 .615 0 .888-.343.205-.274.274-.755.274-1.235v-2.264c0-.343 0-.823-.274-1.166-.341-.48-.683-.412-1.025-.412h-.41v5.351h.547v.069zM88.851 22.942c.342.068.547.068.889.068.273 0 .752 0 .957-.411.136-.343.068-.824-.069-1.715L88.51 6.134h1.913l.957 10.153h.069L92.2 6.133h1.914l-1.709 16.123c-.068.617-.136 1.303-.615 1.852-.478.618-1.162.755-1.64.755s-.889-.069-1.299-.206v-1.715zM100.675 19.237c0 .48.069.755.342 1.235v.069h-2.05a4.792 4.792 0 0 1-.205-1.373v-3.773c0-.343 0-1.098-.41-1.44-.274-.207-.684-.275-.889-.275h-.41v6.86h-1.914V6.134h1.914v5.9h.82c.547 0 .547-.686.547-.892V7.917c0-.48 0-1.03.478-1.44.41-.344.957-.344 1.23-.344h.752v1.715h-.273c-.41 0-.342.275-.342.618v2.95c0 .274-.136.754-.273 1.029-.137.137-.342.412-.684.48v.069c.206.137.616.343.82.617.48.55.48 1.578.48 1.921v3.705h.067z"/>
        </g>
    </g>
</svg>
