<svg xmlns="http://www.w3.org/2000/svg" width="52" height="52" viewBox="0 0 52 52">
    <path fill="#FFF" fill-rule="nonzero" d="M26 3.25c12.543 0 22.75 10.207 22.75 22.75S38.543 48.75 26 48.75 3.25 38.543 3.25 26 13.457 3.25 26 3.25zM26 0C11.642 0 0 11.642 0 26s11.642 26 26 26 26-11.642 26-26S40.358 0 26 0zm14.495 34.693l-.146-.444c-.343-1.022-1.473-2.089-2.514-2.374l-3.843-1.05c-1.041-.283-2.527.098-3.291.863l-1.39 1.39a14.764 14.764 0 0 1-10.382-10.385l1.39-1.39c.762-.762 1.143-2.247.86-3.291l-1.047-3.844c-.283-1.041-1.356-2.17-2.378-2.514l-.438-.146c-1.025-.343-2.488.003-3.25.768l-2.082 2.082c-.37.369-.609 1.425-.609 1.429a24.598 24.598 0 0 0 7.192 17.646c4.66 4.66 11 7.246 17.586 7.189.035 0 1.124-.232 1.495-.603l2.082-2.082c.762-.759 1.104-2.222.765-3.244z"/>
</svg>
