<svg xmlns="http://www.w3.org/2000/svg" width="33" height="33" viewBox="0 0 33 33">
    <g fill="none" fill-rule="nonzero">
        <path fill="#EB2329" d="M30.624 32.637H2.498a2.182 2.182 0 0 1-2.172-2.18V2.222c0-1.199.977-2.18 2.172-2.18h28.126c1.195 0 2.172.981 2.172 2.18v28.233c0 1.2-.977 2.18-2.172 2.18z"/>
        <path fill="#FFF" d="M27.475 3.204c-.109-.654-4.67.545-8.036 2.18-3.258 1.636-6.299 4.143-7.276 5.233-1.412 1.417-6.842 6.976-6.842 13.408 0 4.47 3.584 5.123 5.321 4.687 3.91-.872 8.037-6.431 9.448-8.175.109-.11.326 0 .217.109-.325 1.417-1.411 5.014.87 5.56 4.017.98 11.619-6.105 11.619-6.105v-.981s-7.927 5.559-10.317 4.142c-1.954-1.09 1.955-8.176 1.955-8.176s.652-.872.326-1.09c-.434-.327-1.195.436-1.195.436s-10.425 11.446-13.031 8.83c-.869-.981-.543-5.233 2.389-9.157 1.303-1.744 3.366-4.47 6.081-6.54 1.846-1.418 3.801-2.508 5.539-3.162 1.954-.763 3.04-.872 2.932-1.199z"/>
    </g>
</svg>
