<svg xmlns="http://www.w3.org/2000/svg" width="80" height="73" viewBox="0 0 80 73">
    <g fill="#000" fill-rule="nonzero">
        <path d="M34.652 34.747h-7.997v18.659h7.997c2.932 0 5.33-2.4 5.33-5.331v-7.997c0-2.932-2.398-5.33-5.33-5.33zm2.665 13.328c0 1.6-1.066 2.665-2.665 2.665H29.32V37.413h5.33c1.6 0 2.666 1.066 2.666 2.665v7.997zM58.641 40.078v7.997c0 2.932 2.4 5.33 5.331 5.33h7.997V42.745h-7.997v2.665h5.331v5.331h-5.33c-1.6 0-2.666-1.066-2.666-2.665v-7.997c0-1.599 1.066-2.665 2.665-2.665h7.997v-2.666h-7.997c-2.932 0-5.33 2.4-5.33 5.331z"/>
        <path d="M71.969 26.75H50.645v-7.996L34.652.096H5.33C2.399.096 0 2.495 0 5.426v61.308c0 2.932 2.399 5.33 5.331 5.33h39.983c2.932 0 5.33-2.398 5.33-5.33v-5.331H71.97c4.531 0 7.996-3.466 7.996-7.997V34.747c0-4.531-3.465-7.996-7.996-7.996zM34.652 4.095l12.528 14.66h-9.863c-1.333 0-2.665-1.332-2.665-2.665V4.094zm13.327 62.64c0 1.332-1.066 2.665-2.665 2.665H5.33c-1.333 0-2.665-1.066-2.665-2.666V5.427c0-1.333 1.066-2.666 2.665-2.666h26.655V16.09c0 2.932 2.399 5.33 5.331 5.33H47.98v5.332H26.655c-4.531 0-7.996 3.465-7.996 7.996v18.659c0 4.531 3.465 7.997 7.996 7.997H47.98v5.33zM77.3 53.405c0 2.932-2.398 5.331-5.33 5.331H26.655c-2.932 0-5.331-2.399-5.331-5.331V34.747c0-2.932 2.399-5.33 5.331-5.33H71.97c2.932 0 5.33 2.398 5.33 5.33v18.659z"/>
        <path d="M53.31 48.075l-2.665-5.331h-2.666l-2.665 5.331V34.747h-2.666v18.659h2.666l3.998-7.997 3.998 7.997h2.666V34.747H53.31z"/>
    </g>
</svg>
