<svg xmlns="http://www.w3.org/2000/svg" width="50" height="50" viewBox="0 0 50 50">
    <g fill="none" fill-rule="nonzero">
        <ellipse cx="24.604" cy="25.043" fill="#DC4E41" rx="24.604" ry="24.604"/>
        <path fill="#DC4E41" d="M8.566 26.144c-.087 4.233 2.829 8.273 6.84 9.59 3.778 1.27 8.423.32 10.937-2.915 1.836-2.267 2.253-5.29 2.054-8.113-3.236-.03-6.471-.02-9.702-.015-.005 1.153 0 2.301.005 3.454 1.937.053 3.875.029 5.812.068-.489 1.676-1.603 3.235-3.294 3.84-3.264 1.44-7.43-.44-8.457-3.865-1.24-3.28.79-7.237 4.142-8.19 2.078-.732 4.218.091 5.997 1.172.9-.843 1.743-1.744 2.571-2.655-2.02-1.69-4.616-2.726-7.285-2.499-5.236.063-9.818 4.897-9.62 10.128zM34.694 21.784c-.01.964-.02 1.933-.025 2.897-.969.01-1.932.014-2.896.019v2.887c.964.005 1.933.01 2.896.02.01.964.01 1.927.02 2.896.959 0 1.923-.005 2.886 0 .006-.969.01-1.932.02-2.901l2.897-.015V24.7c-.964-.004-1.933-.01-2.897-.019-.005-.964-.014-1.933-.02-2.896h-2.881z"/>
        <g fill="#FFF">
            <path d="M8.566 26.144c-.198-5.231 4.384-10.065 9.62-10.128 2.669-.228 5.265.809 7.285 2.499-.828.91-1.671 1.811-2.572 2.654-1.778-1.08-3.919-1.903-5.997-1.172-3.352.954-5.381 4.912-4.141 8.19 1.027 3.425 5.193 5.305 8.457 3.866 1.69-.605 2.805-2.165 3.294-3.84-1.937-.04-3.875-.015-5.812-.069-.005-1.152-.01-2.3-.005-3.453 3.23-.005 6.466-.015 9.701.014.2 2.824-.217 5.847-2.053 8.113-2.514 3.236-7.16 4.186-10.938 2.916-4.01-1.317-6.926-5.357-6.839-9.59zM34.694 21.784h2.881c.006.964.015 1.933.02 2.897.964.01 1.933.014 2.897.019v2.887l-2.897.014c-.01.97-.014 1.933-.02 2.902-.963-.005-1.928 0-2.886 0-.01-.97-.01-1.933-.02-2.897-.963-.01-1.932-.014-2.896-.02V24.7c.964-.005 1.928-.01 2.896-.02a532 532 0 0 1 .025-2.896z"/>
        </g>
    </g>
</svg>
