<svg xmlns="http://www.w3.org/2000/svg" width="50" height="50" viewBox="0 0 50 50">
    <g fill="none" fill-rule="nonzero">
        <ellipse cx="24.604" cy="25.043" fill="#FFF" rx="24.604" ry="24.604"/>
        <g fill="#4A524E">
            <path d="M8.566 26.144c-.198-5.231 4.384-10.065 9.62-10.128 2.669-.228 5.265.809 7.285 2.499-.828.91-1.671 1.811-2.572 2.654-1.778-1.08-3.919-1.903-5.997-1.172-3.352.954-5.381 4.912-4.141 8.19 1.027 3.425 5.193 5.305 8.457 3.866 1.69-.605 2.805-2.165 3.294-3.84-1.937-.04-3.875-.015-5.812-.069-.005-1.152-.01-2.3-.005-3.453 3.23-.005 6.466-.015 9.701.014.2 2.824-.217 5.847-2.053 8.113-2.514 3.236-7.16 4.186-10.938 2.916-4.01-1.317-6.926-5.357-6.839-9.59zM34.694 21.784h2.881c.006.964.015 1.933.02 2.897.964.01 1.933.014 2.897.019v2.887l-2.897.014c-.01.97-.014 1.933-.02 2.902-.963-.005-1.928 0-2.886 0-.01-.97-.01-1.933-.02-2.897-.963-.01-1.932-.014-2.896-.02V24.7c.964-.005 1.928-.01 2.896-.02a532 532 0 0 1 .025-2.896z"/>
        </g>
    </g>
</svg>
