<svg xmlns="http://www.w3.org/2000/svg" width="50" height="50" viewBox="0 0 50 50">
    <g fill="none" fill-rule="nonzero">
        <circle cx="24.822" cy="24.822" r="24.822" fill="#EB722E"/>
        <path fill="#FFF" d="M25.347 14.04a3.358 3.358 0 0 1 3.355 3.355 3.358 3.358 0 0 1-3.355 3.353 3.358 3.358 0 0 1-3.353-3.353 3.358 3.358 0 0 1 3.353-3.355zm0 11.454c4.469 0 8.103-3.632 8.103-8.099 0-4.469-3.634-8.103-8.103-8.103-4.468 0-8.102 3.635-8.102 8.103 0 4.467 3.634 8.1 8.102 8.1zm3.278 6.609a15.168 15.168 0 0 0 4.705-1.948 2.373 2.373 0 0 0-2.528-4.019 10.289 10.289 0 0 1-10.908 0 2.371 2.371 0 0 0-3.273.746 2.373 2.373 0 0 0 .744 3.273 15.183 15.183 0 0 0 4.703 1.948l-4.529 4.53a2.374 2.374 0 0 0 3.358 3.357l4.45-4.45 4.452 4.45a2.37 2.37 0 0 0 3.355 0 2.37 2.37 0 0 0 0-3.356l-4.529-4.531z"/>
    </g>
</svg>
