<svg xmlns="http://www.w3.org/2000/svg" width="50" height="50" viewBox="0 0 50 50">
    <g fill="none" fill-rule="evenodd">
        <circle cx="24.822" cy="24.822" r="24.822" fill="#FFF" fill-rule="nonzero"/>
        <g fill="#4A524E">
            <path d="M40.238 32.544c0 4.243-3.451 7.694-7.694 7.694H17.429c-4.243 0-7.694-3.451-7.694-7.694V17.429c0-4.243 3.451-7.694 7.694-7.694h15.115c4.243 0 7.694 3.451 7.694 7.694v15.115zm-7.694-19.49H17.429a4.38 4.38 0 0 0-4.375 4.375v15.115a4.38 4.38 0 0 0 4.375 4.375h15.115a4.38 4.38 0 0 0 4.375-4.375V17.429a4.38 4.38 0 0 0-4.375-4.375z"/>
            <path d="M33.315 18.658a1.86 1.86 0 0 1-1.858-1.86 1.86 1.86 0 0 1 1.858-1.858 1.86 1.86 0 0 1 1.86 1.859 1.86 1.86 0 0 1-1.86 1.859zM24.998 32.755c-4.331 0-7.856-3.525-7.856-7.857 0-4.331 3.525-7.856 7.856-7.856 4.332 0 7.857 3.525 7.857 7.856 0 4.332-3.525 7.857-7.857 7.857zM24.936 20.4a4.542 4.542 0 0 0-4.537 4.536 4.543 4.543 0 0 0 4.537 4.538 4.543 4.543 0 0 0 4.537-4.538c0-2.5-2.036-4.536-4.537-4.536z"/>
        </g>
    </g>
</svg>
