<svg xmlns="http://www.w3.org/2000/svg" xmlns:xlink="http://www.w3.org/1999/xlink" width="58" height="58" viewBox="0 0 58 58">
    <defs>
        <ellipse id="a" cx="27" cy="27" rx="27" ry="27"/>
        <mask id="b" width="58" height="58" x="-2" y="-2">
            <path fill="#fff" d="M-2-2h58v58H-2z"/>
            <use xlink:href="#a"/>
        </mask>
    </defs>
    <g fill="none" fill-rule="evenodd">
        <g transform="translate(2 2)">
            <use fill="#EB2329" xlink:href="#a"/>
            <use stroke="#FFF" stroke-width="4" mask="url(#b)" xlink:href="#a"/>
        </g>
        <g fill="#FFF" fill-rule="nonzero" transform="translate(11 11)">
            <path d="M34.832 17.675V5.42A5.426 5.426 0 0 0 29.412 0H7.588a5.426 5.426 0 0 0-5.42 5.42v12.255A3.257 3.257 0 0 0 0 20.74v4.336a3.256 3.256 0 0 0 3.252 3.252h3.252v5.42c0 .874.357 1.696 1.006 2.317A3.343 3.343 0 0 0 9.828 37h17.416a3.256 3.256 0 0 0 3.252-3.252v-5.42h3.252A3.256 3.256 0 0 0 37 25.076V20.74a3.257 3.257 0 0 0-2.168-3.065zM21.824 2.168h7.588a3.256 3.256 0 0 1 3.252 3.252v3.396h-10.84V2.168zm8.672 10.984v-2.168h2.168v2.168h-2.168zm2.168 2.168v2.168h-2.168V15.32h2.168zm-6.504-2.168v-2.168h2.168v2.168H26.16zm2.168 2.168v2.168H26.16V15.32h2.168zm-6.504-4.336h2.168v2.168h-2.168v-2.168zm0 4.336h2.168v2.168h-2.168V15.32zM4.336 5.42a3.256 3.256 0 0 1 3.252-3.252h12.068v15.32H4.336V5.42zm23.992 28.328c0 .598-.486 1.084-1.084 1.084H9.828c-.616 0-1.156-.506-1.156-1.084v-9.756h2.24v5.42c0 .599.485 1.084 1.084 1.084.598 0 1.084.486 1.084 1.084 0 .599.485 1.084 1.084 1.084h8.744c.599 0 1.084-.485 1.084-1.084 0-.598.486-1.084 1.084-1.084.599 0 1.084-.485 1.084-1.084v-5.42h2.168v9.756zm-9.756-5.42a3.256 3.256 0 0 0 3.252-3.252v-1.084h2.168v4.522a3.268 3.268 0 0 0-1.982 1.982h-6.948a3.268 3.268 0 0 0-1.982-1.982v-4.522h2.24v1.084a3.256 3.256 0 0 0 3.252 3.252zm-1.084-3.252v-1.084h2.168v1.084a1.085 1.085 0 0 1-2.168 0zm17.344 0c0 .598-.486 1.084-1.084 1.084h-3.252v-2.168h1.084a1.084 1.084 0 0 0 0-2.168H5.42a1.084 1.084 0 0 0 0 2.168h1.084v2.168H3.252a1.085 1.085 0 0 1-1.084-1.084V20.74c0-.597.486-1.084 1.084-1.084h30.496c.598 0 1.084.487 1.084 1.084v4.336z"/>
            <path d="M16.404 4.336H7.588c-.599 0-1.084.485-1.084 1.084v8.816c0 .599.485 1.084 1.084 1.084h8.816c.599 0 1.084-.485 1.084-1.084V5.42c0-.599-.485-1.084-1.084-1.084zm-1.084 8.816H8.672V6.504h6.648v6.648z"/>
            <circle cx="25.076" cy="5.42" r="1.084"/>
            <circle cx="29.412" cy="5.42" r="1.084"/>
        </g>
    </g>
</svg>
