<svg xmlns="http://www.w3.org/2000/svg" xmlns:xlink="http://www.w3.org/1999/xlink" width="58" height="58" viewBox="0 0 58 58">
    <defs>
        <ellipse id="a" cx="27" cy="27" rx="27" ry="27"/>
        <mask id="b" width="58" height="58" x="-2" y="-2">
            <path fill="#fff" d="M-2-2h58v58H-2z"/>
            <use xlink:href="#a"/>
        </mask>
    </defs>
    <g fill="none" fill-rule="evenodd">
        <g transform="translate(2 2)">
            <use fill="#EB2329" xlink:href="#a"/>
            <use stroke="#FFF" stroke-width="4" mask="url(#b)" xlink:href="#a"/>
        </g>
        <path fill="#FFF" fill-rule="nonzero" d="M48 22.924a3.252 3.252 0 0 0-1.517-2.749A5.4 5.4 0 0 0 48 16.42 5.426 5.426 0 0 0 42.58 11a5.426 5.426 0 0 0-5.42 5.42 5.4 5.4 0 0 0 1.518 3.755 3.252 3.252 0 0 0-1.518 2.749c0 .949.409 1.804 1.059 2.399-2.311.537-5.458.853-8.719.853-3.26 0-6.408-.317-8.719-.853a3.244 3.244 0 0 0 1.059-2.4 3.252 3.252 0 0 0-1.518-2.748 5.4 5.4 0 0 0 1.518-3.755A5.426 5.426 0 0 0 16.42 11 5.426 5.426 0 0 0 11 16.42a5.4 5.4 0 0 0 1.517 3.755A3.252 3.252 0 0 0 11 22.924c0 1.413.906 2.618 2.168 3.065v15.694A3.257 3.257 0 0 0 11 44.748 3.256 3.256 0 0 0 14.252 48h4.336a3.257 3.257 0 0 0 3.065-2.168h15.694A3.257 3.257 0 0 0 40.412 48h4.336A3.256 3.256 0 0 0 48 44.748a3.257 3.257 0 0 0-2.168-3.065V25.989A3.257 3.257 0 0 0 48 22.924zm-5.42-9.756a3.256 3.256 0 0 1 3.252 3.252 3.256 3.256 0 0 1-3.252 3.252 3.256 3.256 0 0 1-3.252-3.252 3.256 3.256 0 0 1 3.252-3.252zM29.5 28.344c3.749 0 7.282-.39 9.828-1.063v7.317l-2.344-3.594a1.084 1.084 0 0 0-.908-.492H22.924c-.366 0-.708.185-.908.492l-2.344 3.594V27.28c2.546.673 6.08 1.063 9.828 1.063zM16.42 13.168a3.256 3.256 0 0 1 3.252 3.252 3.256 3.256 0 0 1-3.252 3.252 3.256 3.256 0 0 1-3.252-3.252 3.256 3.256 0 0 1 3.252-3.252zm-2.168 8.672h4.336a1.085 1.085 0 0 1 0 2.168h-4.336a1.085 1.085 0 0 1 0-2.168zm3.252 4.336v15.32h-2.168v-15.32h2.168zm1.084 19.656h-4.336a1.085 1.085 0 0 1 0-2.168h4.336a1.085 1.085 0 0 1 0 2.168zm2.16-3.512a3.253 3.253 0 0 0-1.076-.637v-3.117l3.839-5.886h2.003l-4.767 9.64zm1.753 1.344l5.432-10.984h3.134l5.432 10.984H22.5zM33.486 32.68h2.003l3.84 5.886v3.117c-.401.141-.765.36-1.076.636l-4.767-9.64zm11.262 13.152h-4.336a1.085 1.085 0 0 1 0-2.168h4.336a1.085 1.085 0 0 1 0 2.168zm-3.252-4.336v-15.32h2.168v15.32h-2.168zm3.252-17.488h-4.336a1.085 1.085 0 0 1 0-2.168h4.336a1.085 1.085 0 0 1 0 2.168z"/>
    </g>
</svg>
