<svg xmlns="http://www.w3.org/2000/svg" xmlns:xlink="http://www.w3.org/1999/xlink" width="58" height="58" viewBox="0 0 58 58">
    <defs>
        <ellipse id="a" cx="27" cy="27" rx="27" ry="27"/>
        <mask id="b" width="58" height="58" x="-2" y="-2">
            <path fill="#fff" d="M-2-2h58v58H-2z"/>
            <use xlink:href="#a"/>
        </mask>
    </defs>
    <g fill="none" fill-rule="evenodd">
        <g transform="translate(2 2)">
            <use fill="#EB2329" xlink:href="#a"/>
            <use stroke="#FFF" stroke-width="4" mask="url(#b)" xlink:href="#a"/>
        </g>
        <g fill="#FFF" fill-rule="nonzero">
            <path d="M47.402 22.164l-2.568-1.283-1.284-2.568c-.399-.798-1.54-.796-1.939 0l-1.284 2.568-2.567 1.283c-.799.4-.797 1.541 0 1.94l2.567 1.284 1.284 2.567c.4.799 1.541.797 1.94 0l1.283-2.567 2.568-1.284c.798-.4.796-1.541 0-1.94zm-3.86 1.446c-.21.105-.38.275-.485.485l-.476.952-.476-.952a1.084 1.084 0 0 0-.485-.485l-.951-.476.951-.476c.21-.105.38-.275.485-.484l.476-.952.476.952c.105.21.275.38.484.484l.952.476-.952.476zM21.24 19.996l-2.567-1.283-1.284-2.568c-.4-.798-1.541-.796-1.94 0l-1.283 2.568-2.568 1.283c-.798.4-.796 1.541 0 1.94l2.568 1.284 1.283 2.567c.4.798 1.541.797 1.94 0l1.284-2.567 2.567-1.284c.799-.4.797-1.541 0-1.94zm-3.86 1.446c-.21.105-.38.275-.485.485l-.476.951-.476-.951a1.084 1.084 0 0 0-.484-.485l-.952-.476.951-.476c.21-.105.38-.275.485-.485l.476-.951.476.951c.105.21.275.38.485.485l.951.476-.951.476zM47.215 41.959l-1.084-4.336a3.247 3.247 0 0 0-3.155-2.464h-4.521a3.234 3.234 0 0 0 .088-1.872l-1.084-4.337a3.247 3.247 0 0 0-3.155-2.463H24.68a3.248 3.248 0 0 0-3.155 2.463l-1.084 4.337a3.234 3.234 0 0 0 .088 1.872h-4.522a3.248 3.248 0 0 0-3.155 2.464l-1.084 4.336a3.252 3.252 0 0 0 3.155 4.04h11.791a3.232 3.232 0 0 0 2.777-1.558A3.232 3.232 0 0 0 32.27 46H44.06a3.252 3.252 0 0 0 3.155-4.04zM27.57 43.415a1.077 1.077 0 0 1-.855.417h-4.141l1.384-2.768a1.084 1.084 0 0 0-1.94-.97l-1.868 3.738h-5.226a1.084 1.084 0 0 1-1.051-1.347l1.084-4.337c.12-.483.553-.82 1.051-.82h3.058l-1.384 2.767a1.084 1.084 0 0 0 1.94.97l1.868-3.738h4.141c.499 0 .931.338 1.052.822l1.084 4.336c.082.326.01.665-.197.93zm2.628-5.792l-.706 2.823-.706-2.823a3.267 3.267 0 0 0-.089-.296h1.59a3.29 3.29 0 0 0-.089.296zm.493-6.2l-1.869 3.736h-5.225a1.084 1.084 0 0 1-1.052-1.347l1.084-4.336c.12-.483.553-.821 1.052-.821h3.057l-1.383 2.767a1.084 1.084 0 0 0 1.939.97l1.868-3.737h4.142c.498 0 .93.338 1.051.821l1.084 4.336a1.084 1.084 0 0 1-1.051 1.347h-4.142l1.384-2.767a1.084 1.084 0 0 0-1.94-.97zm13.37 12.409h-4.142l1.383-2.768a1.084 1.084 0 0 0-1.939-.97l-1.868 3.738h-5.226a1.084 1.084 0 0 1-1.052-1.347l1.085-4.336c.12-.484.553-.822 1.051-.822h3.058l-1.384 2.768a1.084 1.084 0 0 0 1.94.97l1.868-3.738h4.141c.499 0 .931.338 1.052.822l1.084 4.336a1.084 1.084 0 0 1-1.052 1.347zM36.34 15.63l-4.362-1.454-1.456-4.433c-.325-.99-1.734-.991-2.06 0l-1.456 4.433-4.36 1.454c-.985.328-.987 1.728 0 2.057l4.363 1.454 1.455 4.364c.328.984 1.728.987 2.057 0l1.454-4.364 4.364-1.454c.984-.328.987-1.728 0-2.057zm-5.565 1.626a1.084 1.084 0 0 0-.685.686l-.598 1.793-.598-1.793a1.084 1.084 0 0 0-.685-.686l-1.793-.598 1.793-.598c.325-.108.58-.364.687-.69l.596-1.815.596 1.815c.107.326.362.582.687.69l1.793.598-1.793.598z"/>
        </g>
    </g>
</svg>
