<svg xmlns="http://www.w3.org/2000/svg" xmlns:xlink="http://www.w3.org/1999/xlink" width="58" height="58" viewBox="0 0 58 58">
    <defs>
        <ellipse id="a" cx="27" cy="27" rx="27" ry="27"/>
        <mask id="b" width="58" height="58" x="-2" y="-2">
            <path fill="#fff" d="M-2-2h58v58H-2z"/>
            <use xlink:href="#a"/>
        </mask>
    </defs>
    <g fill="none" fill-rule="evenodd">
        <g transform="translate(2 2)">
            <use fill="#EB2329" xlink:href="#a"/>
            <use stroke="#FFF" stroke-width="4" mask="url(#b)" xlink:href="#a"/>
        </g>
        <path fill="#FFF" fill-rule="nonzero" d="M45.43 37.161l-1.982-3.675.86-1.489a3.25 3.25 0 0 0-1.191-4.442 3.25 3.25 0 0 0-4.442 1.19l-2.314 4.007H29.71l-3.049-6.41c.469-.22 10.216-4.764 10.682-4.982.542-.253.777-.898.524-1.44-3.126-6.704-10.89-9.797-17.704-7.245l-.502-1.056a1.084 1.084 0 0 0-1.957.93l.493 1.039c-6.366 3.568-9.006 11.523-5.872 18.242.253.545.9.777 1.44.525l10.932-5.098 2.612 5.495h-2.15a5.43 5.43 0 0 0-5.31 4.336h-1.194a3.256 3.256 0 0 0-3.251 3.252 3.256 3.256 0 0 0 3.251 3.252h2.595l-1.4 2.845a1.084 1.084 0 1 0 1.946.957l1.87-3.803h8.707l1.732 3.776a1.084 1.084 0 0 0 1.97-.903l-1.317-2.873h4.974l1.87 3.803a1.084 1.084 0 0 0 1.946-.957l-1.4-2.846h2.595a3.256 3.256 0 0 0 3.252-3.251c0-1.558-1.101-2.862-2.565-3.179zm-31.554-7.25c-1.716-4.757-.202-10.034 3.579-13.19a11.928 11.928 0 0 0-.152 10.396l.458.982-3.885 1.812zM35.4 19.874l-3.885 1.812-.458-.983a11.927 11.927 0 0 0-8.064-6.566c4.85-.868 9.865 1.364 12.407 5.737zm-15.674 7.31l-.458-.983a9.76 9.76 0 0 1 .534-9.239l3.964 8.337-4.04 1.884zm2.07-11.075a9.76 9.76 0 0 1 7.296 5.51l.458.983-3.82 1.781-3.934-8.274zm3.363 18.81h11.828c.388 0 .746-.206.94-.541l2.625-4.549a1.083 1.083 0 1 1 1.878 1.084l-3.565 6.175H22.093a3.257 3.257 0 0 1 3.066-2.168zm17.768 2.169h-1.559l.806-1.396.753 1.396zm1.816 4.336H18.655a1.085 1.085 0 0 1 0-2.168h26.091a1.085 1.085 0 0 1-.003 2.168z"/>
    </g>
</svg>
