<svg xmlns="http://www.w3.org/2000/svg" xmlns:xlink="http://www.w3.org/1999/xlink" width="58" height="58" viewBox="0 0 58 58">
    <defs>
        <ellipse id="a" cx="27" cy="27" rx="27" ry="27"/>
        <mask id="b" width="58" height="58" x="-2" y="-2">
            <path fill="#fff" d="M-2-2h58v58H-2z"/>
            <use xlink:href="#a"/>
        </mask>
    </defs>
    <g fill="none" fill-rule="evenodd">
        <g transform="translate(2 2)">
            <use fill="#EB2329" xlink:href="#a"/>
            <use stroke="#FFF" stroke-width="4" mask="url(#b)" xlink:href="#a"/>
        </g>
        <g fill="#FFF" fill-rule="nonzero">
            <path d="M47.592 31.329l-5.096-16.985c-.705-2.35-3.664-3.1-5.401-1.362l-1.771 1.771a1.074 1.074 0 1 0 1.519 1.52l1.77-1.772a1.096 1.096 0 0 1 1.826.46l4.443 14.81c-1.81-.217-4.161.239-6.186.91-3.486 1.155-5.088 2.562-5.868 3.04-1.725 1.057-2.675 1.64-3.322 1.655-.938.023-3.147-1.62-3.666-1.845-1.574-1.24-3.609-2.212-5.536-2.85-2.024-.671-4.375-1.127-6.185-.91l4.443-14.81a1.096 1.096 0 0 1 1.825-.46l1.77 1.771a1.074 1.074 0 1 0 1.52-1.519l-1.77-1.77c-1.736-1.736-4.696-.993-5.402 1.36L11.409 31.33c-.74 1.35-.306 3.2-.017 4.811.93 5.185 3.456 7.293 5.411 8.148 2.582 1.128 5.693.698 8.11-.849 2.104-1.347 3.988-3.27 3.676-5.76a4.25 4.25 0 0 0-.046-.282c.318.086.635.13.957.128.313-.002.63-.047.96-.139a4.412 4.412 0 0 0-.048.293c-.312 2.49 1.572 4.413 3.676 5.76 2.43 1.555 5.54 1.972 8.11.849 1.955-.855 4.481-2.963 5.41-8.148.298-1.653.716-3.475-.016-4.811zm-23.837 10.3c-1.504.963-3.895 1.65-6.091.69-2.117-.925-3.554-3.193-4.158-6.558-.497-2.772-.412-2.572-.128-3.52l.018-.02c.45-.471 2.86-.619 6.233.499 3.852 1.277 6.596 3.377 6.828 5.226.187 1.495-1.366 2.829-2.702 3.684zm21.74-5.868c-.604 3.365-2.041 5.633-4.158 6.558-2.196.96-4.587.273-6.091-.69-1.336-.854-2.89-2.188-2.702-3.683.231-1.849 2.976-3.95 6.828-5.226 2.98-.987 5.683-1.073 6.233-.5l.017.02c.286.95.368.756-.128 3.521z"/>
            <path d="M22.318 38.414l-4.34-2.17a1.085 1.085 0 0 0-.97 1.94l4.34 2.17a1.085 1.085 0 1 0 .97-1.94zM40.909 38.414l-4.34-2.17a1.085 1.085 0 0 0-.971 1.94l4.34 2.17a1.085 1.085 0 0 0 .97-1.941z"/>
        </g>
    </g>
</svg>
