<svg xmlns="http://www.w3.org/2000/svg" xmlns:xlink="http://www.w3.org/1999/xlink" width="58" height="58" viewBox="0 0 58 58">
    <defs>
        <ellipse id="a" cx="27" cy="27" rx="27" ry="27"/>
        <mask id="b" width="58" height="58" x="-2" y="-2">
            <path fill="#fff" d="M-2-2h58v58H-2z"/>
            <use xlink:href="#a"/>
        </mask>
    </defs>
    <g fill="none" fill-rule="evenodd">
        <g transform="translate(2 2)">
            <use fill="#EB2329" xlink:href="#a"/>
            <use stroke="#FFF" stroke-width="4" mask="url(#b)" xlink:href="#a"/>
        </g>
        <g fill="#FFF" fill-rule="nonzero">
            <path d="M47.585 29.617a1.07 1.07 0 0 0-.04-.116c-1.062-2.912-3.858-4.997-7.133-4.997h-1.719l-6.186-6.186a1.084 1.084 0 0 0-1.85.766v5.42h-6.65V23.42a3.256 3.256 0 0 0-3.251-3.252 3.256 3.256 0 0 0-3.252 3.252v1.084H14.252A3.256 3.256 0 0 0 11 27.756v2.168a5.43 5.43 0 0 0 4.339 5.311c-.001.036-.003.072-.003.109a4.34 4.34 0 0 0 4.336 4.336 4.34 4.34 0 0 0 4.336-4.336h10.984a4.34 4.34 0 0 0 4.336 4.336 4.34 4.34 0 0 0 4.336-4.336h1.084A3.256 3.256 0 0 0 48 32.092c0-.867-.146-1.7-.415-2.475zm-6.089-2.836a5.43 5.43 0 0 1 3.25 2.059H42.58a1.085 1.085 0 0 1-1.084-1.084v-.975zm-8.672-5.08l2.803 2.803h-2.803V21.7zM19.672 23.42a1.085 1.085 0 0 1 2.168 0v1.084h-2.168V23.42zm-6.504 4.336c0-.598.486-1.084 1.084-1.084h1.084v1.084c0 .598-.486 1.084-1.084 1.084h-1.084v-1.084zm6.504 9.756a2.17 2.17 0 0 1-2.168-2.168 2.17 2.17 0 0 1 2.168-2.168 2.17 2.17 0 0 1 2.168 2.168 2.17 2.17 0 0 1-2.168 2.168zm3.752-4.336a4.337 4.337 0 0 0-3.752-2.168 4.337 4.337 0 0 0-3.732 2.132 3.261 3.261 0 0 1-2.586-2.132h.898a3.256 3.256 0 0 0 3.252-3.252v-1.084h6.504v1.084c0 2.121.875 4.041 2.283 5.42h-2.867zm15.904 4.336a2.17 2.17 0 0 1-2.168-2.168 2.17 2.17 0 0 1 2.168-2.168 2.17 2.17 0 0 1 2.168 2.168 2.17 2.17 0 0 1-2.168 2.168zm5.42-4.336h-1.667a4.337 4.337 0 0 0-3.753-2.168 4.337 4.337 0 0 0-3.752 2.168h-3.98a5.426 5.426 0 0 1-5.42-5.42v-1.084h13.152v1.084a3.256 3.256 0 0 0 3.252 3.252H45.723c.071.35.109.713.109 1.084 0 .598-.486 1.084-1.084 1.084z"/>
            <path d="M31.74 28.84h-2.168a1.084 1.084 0 0 0 0 2.168h2.168a1.084 1.084 0 0 0 0-2.168z"/>
        </g>
    </g>
</svg>
