<svg xmlns="http://www.w3.org/2000/svg" xmlns:xlink="http://www.w3.org/1999/xlink" width="58" height="58" viewBox="0 0 58 58">
    <defs>
        <ellipse id="a" cx="27" cy="27" rx="27" ry="27"/>
        <mask id="b" width="58" height="58" x="-2" y="-2">
            <path fill="#fff" d="M-2-2h58v58H-2z"/>
            <use xlink:href="#a"/>
        </mask>
    </defs>
    <g fill="none" fill-rule="evenodd">
        <g transform="translate(2 2)">
            <use fill="#EB2329" xlink:href="#a"/>
            <use stroke="#FFF" stroke-width="4" mask="url(#b)" xlink:href="#a"/>
        </g>
        <path fill="#FFF" fill-rule="nonzero" d="M49.585 35.106l-2.006-4.866a3.2 3.2 0 0 0-1.922-1.834v-6.48c0-2.602-1.043-5.055-2.938-6.907a9.91 9.91 0 0 0-6.96-2.848h-7.773a3.257 3.257 0 0 0-3.065-2.167 3.256 3.256 0 0 0-3.065 2.167h-1.27a1.084 1.084 0 0 0 0 2.168h1.084v2.354a3.256 3.256 0 0 0-2.167 3.065c0 .78.276 1.497.736 2.058C16.115 23.616 13 27.838 13 32.907c0 3.182 1.24 6.111 3.377 8.31a3.246 3.246 0 0 0-1.21 2.528 3.255 3.255 0 0 0 3.252 3.251h13.005a3.255 3.255 0 0 0 3.251-3.251c0-1.02-.472-1.931-1.21-2.528a11.859 11.859 0 0 0 3.378-8.31c0-4.978-3.032-9.255-7.24-11.091.46-.561.737-1.278.737-2.058a3.256 3.256 0 0 0-2.167-3.065v-2.354h7.586c4.263 0 7.73 3.403 7.73 7.586v6.481a3.199 3.199 0 0 0-1.922 1.834l-2.005 4.866c-1.464 3.55 1.141 7.482 5.019 7.482 3.86 0 6.474-3.917 5.004-7.482zm-25.747-21.85c0-.598.486-1.084 1.083-1.084.598 0 1.084.486 1.084 1.083v3.252h-2.167v-3.252zm-1.084 5.418h4.335a1.085 1.085 0 0 1 0 2.168h-4.335a1.085 1.085 0 0 1-1.084-1.084c0-.598.486-1.084 1.084-1.084zM15.17 32.726c.089-5.005 3.856-9.113 8.668-9.656v9.028a9.102 9.102 0 0 0-8.456.5l-.212.128zm16.254 12.103H18.419a1.085 1.085 0 0 1-1.084-1.084c0-.598.486-1.084 1.084-1.084h13.005a1.085 1.085 0 0 1 0 2.168zm-.372-4.335H18.79a9.664 9.664 0 0 1-3.377-5.387l1.083-.65a6.945 6.945 0 0 1 7.34.1v3.77a1.084 1.084 0 0 0 2.168 0v-2.444a9.09 9.09 0 0 0 3.748.81c1.578 0 3.16-.412 4.59-1.242a9.67 9.67 0 0 1-3.291 5.043zm3.62-7.766l-1.327.797a6.945 6.945 0 0 1-7.34-.1V23.07c4.813.543 8.58 4.653 8.668 9.658zm9.83 7.694c-2.266-.043-3.809-2.374-2.936-4.49l2.005-4.866c.369-.894 1.636-.894 2.004 0l2.006 4.866c.878 2.13-.658 4.535-3.08 4.49z"/>
    </g>
</svg>
