<svg xmlns="http://www.w3.org/2000/svg" xmlns:xlink="http://www.w3.org/1999/xlink" width="58" height="58" viewBox="0 0 58 58">
    <defs>
        <ellipse id="a" cx="27" cy="27" rx="27" ry="27"/>
        <mask id="b" width="58" height="58" x="-2" y="-2">
            <path fill="#fff" d="M-2-2h58v58H-2z"/>
            <use xlink:href="#a"/>
        </mask>
    </defs>
    <g fill="none" fill-rule="evenodd">
        <g transform="translate(2 2)">
            <use fill="#EB2329" xlink:href="#a"/>
            <use stroke="#FFF" stroke-width="4" mask="url(#b)" xlink:href="#a"/>
        </g>
        <path fill="#FFF" fill-rule="nonzero" d="M45.653 41.553l-4.1-4.1a2.903 2.903 0 0 0-3.298-.565l-1.586-1.585c4.566-4.83 7.655-10.892 8.953-17.596l.217-1.117a2.875 2.875 0 0 0-.77-2.724 2.875 2.875 0 0 0-2.723-.769l-1.117.216c-6.705 1.299-12.767 4.388-17.596 8.954l-1.584-1.585c.184-.385.282-.81.282-1.25a2.88 2.88 0 0 0-.85-2.05l-4.099-4.099a.966.966 0 0 0-1.366 0l-2.733 2.733a.966.966 0 0 0 0 1.366l4.1 4.1a2.88 2.88 0 0 0 2.05.849c.439 0 .864-.098 1.25-.282l1.584 1.584c-4.566 4.83-7.655 10.891-8.954 17.596l-.216 1.117c-.236.987.05 2.004.77 2.723a2.873 2.873 0 0 0 2.723.77l1.117-.217c6.704-1.298 12.766-4.387 17.596-8.953l1.584 1.584c-.185.386-.282.81-.282 1.25 0 .775.301 1.503.849 2.05l4.1 4.1a.963.963 0 0 0 1.366 0l2.733-2.733a.966.966 0 0 0 0-1.367zM20.115 20.115a.96.96 0 0 1-.683.283.96.96 0 0 1-.683-.283L15.333 16.7l1.366-1.366 3.416 3.416a.967.967 0 0 1 0 1.366zm-2.775 23.61l-1.14.22a.888.888 0 0 0-.05.012.951.951 0 0 1-.917-.254.951.951 0 0 1-.254-.917c.004-.017.008-.034.01-.05l.222-1.14c1.254-6.477 4.195-12.158 8.398-16.621l1.374 1.374a30.612 30.612 0 0 0-4.414 6.061.955.955 0 0 0-.098.178 32.022 32.022 0 0 0-2.994 7.701.966.966 0 0 0 1.17 1.17 32.024 32.024 0 0 0 7.7-2.995.956.956 0 0 0 .178-.097 30.61 30.61 0 0 0 6.061-4.414l1.375 1.374c-4.464 4.203-10.144 7.144-16.621 8.398zM36.369 26.14a28.55 28.55 0 0 1-3.781 5.081l-4.873-4.873a28.558 28.558 0 0 1 5.08-3.781l3.574 3.573zm-1.798-4.53a30.011 30.011 0 0 1 4.566-1.812 29.994 29.994 0 0 1-1.81 4.567L34.57 21.61zm-3.35 10.977a28.55 28.55 0 0 1-5.08 3.782l-3.574-3.574a28.55 28.55 0 0 1 3.781-5.08l4.873 4.872zm-6.856 4.74a30.01 30.01 0 0 1-4.567 1.81 29.998 29.998 0 0 1 1.811-4.566l2.756 2.755zm9.588-4.74a30.608 30.608 0 0 0 4.414-6.062.955.955 0 0 0 .097-.177 32.02 32.02 0 0 0 2.995-7.701.966.966 0 0 0-1.17-1.17 32.024 32.024 0 0 0-7.7 2.994.963.963 0 0 0-.179.098 30.61 30.61 0 0 0-6.06 4.414l-1.375-1.374c4.463-4.203 10.144-7.144 16.621-8.398l1.14-.221c.016-.003.218-.042.294-.042.344 0 .577.19.672.285a.951.951 0 0 1 .255.917 1.018 1.018 0 0 0-.011.05l-.221 1.14c-1.254 6.477-4.195 12.157-8.398 16.62l-1.374-1.374zm8.283 11.016l-3.416-3.416a.96.96 0 0 1-.283-.683.963.963 0 0 1 1.65-.683l3.416 3.416-1.367 1.366z"/>
    </g>
</svg>
