<svg xmlns="http://www.w3.org/2000/svg" xmlns:xlink="http://www.w3.org/1999/xlink" width="58" height="58" viewBox="0 0 58 58">
    <defs>
        <ellipse id="a" cx="27" cy="27" rx="27" ry="27"/>
        <mask id="b" width="58" height="58" x="-2" y="-2">
            <path fill="#fff" d="M-2-2h58v58H-2z"/>
            <use xlink:href="#a"/>
        </mask>
    </defs>
    <g fill="none" fill-rule="evenodd">
        <g transform="translate(2 2)">
            <use fill="#EB2329" xlink:href="#a"/>
            <use stroke="#FFF" stroke-width="4" mask="url(#b)" xlink:href="#a"/>
        </g>
        <path fill="#FFF" fill-rule="nonzero" d="M48 18.66c0-.598-.485-1.084-1.084-1.084h-8.672a1.084 1.084 0 0 0 0 2.168h.414l-.523 1.047a5.48 5.48 0 0 0 .029 4.927c.3.587.696 1.094 1.164 1.505 0 2.035-1.555 3.361-3.252 3.361-1.802 0-3.324-1.49-3.324-3.252v-9.937a5.429 5.429 0 0 0 4.336-5.311c0-.599-.485-1.084-1.084-1.084H22.996c-.599 0-1.084.485-1.084 1.084a5.43 5.43 0 0 0 4.336 5.31v9.938a3.256 3.256 0 0 1-3.252 3.252c-1.82 0-3.375-1.5-3.32-3.364.466-.41.861-.917 1.16-1.502a5.48 5.48 0 0 0 .03-4.927l-.524-1.047h.414a1.084 1.084 0 0 0 0-2.168h-8.672a1.084 1.084 0 0 0 0 2.168h.414l-.523 1.047a5.48 5.48 0 0 0 .029 4.927c.3.588.698 1.096 1.168 1.508-.002.036-.004.07-.004.106 0 3.18 1.541 6.01 3.92 7.792-.161.256-.34.55-.522.863-1.103 1.9-1.23 2.714-1.23 3.16a3.256 3.256 0 0 0 3.252 3.252 3.256 3.256 0 0 0 3.252-3.252c0-.366-.087-.98-.727-2.24.61.118 1.24.18 1.883.18a9.71 9.71 0 0 0 3.252-.557v1.642c0 1.181.633 2.217 1.578 2.787-.114.188-.233.39-.352.6-1.099 1.93-1.226 2.745-1.226 3.189A3.256 3.256 0 0 0 29.5 48a3.256 3.256 0 0 0 3.252-3.252c0-.444-.127-1.258-1.226-3.19-.12-.209-.238-.41-.352-.6a3.253 3.253 0 0 0 1.578-2.786V36.52a9.982 9.982 0 0 0 3.324.568c.617 0 1.22-.058 1.805-.168-.635 1.25-.72 1.862-.72 2.227a3.256 3.256 0 0 0 3.251 3.252 3.256 3.256 0 0 0 3.252-3.252c0-.446-.127-1.26-1.23-3.16a28.494 28.494 0 0 0-.513-.848c2.395-1.798 3.911-4.608 3.911-7.916a5.063 5.063 0 0 0 1.164-1.505 5.48 5.48 0 0 0 .03-4.927l-.524-1.047h.414c.599 0 1.084-.485 1.084-1.084zm-6.918 1.084h2.996c1.105 2.21 1.025 2.046 1.078 2.168h-5.152c.053-.122-.03.047 1.078-2.168zm-16.816-6.583h10.468a3.264 3.264 0 0 1-3.066 2.175h-4.336a3.264 3.264 0 0 1-3.066-2.175zm-9.344 6.583h2.996c1.106 2.212 1.025 2.046 1.078 2.168h-5.152c.053-.122-.03.047 1.078-2.168zm-1.237 4.329h5.47c-.292 1.09-1.084 1.95-2.206 2.132a3.32 3.32 0 0 1-1.058 0c-1.125-.183-1.917-1.052-2.206-2.132zm4.903 16.158a1.085 1.085 0 0 1-1.084-1.082c.009-.332.46-1.276 1.084-2.328.624 1.05 1.075 1.995 1.084 2.327 0 .598-.487 1.083-1.084 1.083zM29.5 45.832a1.085 1.085 0 0 1-1.084-1.083c.009-.333.46-1.294 1.084-2.369.625 1.074 1.075 2.035 1.084 2.369 0 .597-.487 1.083-1.084 1.083zm1.084-7.66a1.085 1.085 0 0 1-2.168 0V35.44c.38-.255.742-.537 1.082-.841.343.306.706.586 1.086.838v2.735zm0-10.84c0 4.184-3.404 7.588-7.588 7.588-3.89 0-7.105-2.886-7.595-6.6a5.424 5.424 0 0 0 2.197-.034c.478 2.573 2.754 4.466 5.398 4.466a5.426 5.426 0 0 0 5.42-5.42V21.84h2.168v5.492zm0-7.66h-2.168v-2.168h2.168v2.168zm9.828 20.56a1.085 1.085 0 0 1-1.084-1.083c.009-.332.46-1.276 1.084-2.328.624 1.05 1.075 1.995 1.084 2.327 0 .598-.486 1.083-1.084 1.083zm-4.336-5.312a7.71 7.71 0 0 1-5.132-1.936 9.753 9.753 0 0 0 1.095-1.993 5.5 5.5 0 0 0 4.037 1.761c2.662 0 4.88-1.93 5.334-4.464a5.43 5.43 0 0 0 2.19.032c-.487 3.725-3.682 6.6-7.524 6.6zm7.033-8.715a3.32 3.32 0 0 1-1.058 0c-1.13-.184-1.917-1.053-2.206-2.132h5.47c-.288 1.075-1.073 1.948-2.206 2.132z"/>
    </g>
</svg>
