<svg xmlns="http://www.w3.org/2000/svg" xmlns:xlink="http://www.w3.org/1999/xlink" width="58" height="58" viewBox="0 0 58 58">
    <defs>
        <ellipse id="a" cx="27" cy="27" rx="27" ry="27"/>
        <mask id="b" width="58" height="58" x="-2" y="-2">
            <path fill="#fff" d="M-2-2h58v58H-2z"/>
            <use xlink:href="#a"/>
        </mask>
    </defs>
    <g fill="none" fill-rule="evenodd">
        <g transform="translate(2 2)">
            <use fill="#EB2329" xlink:href="#a"/>
            <use stroke="#FFF" stroke-width="4" mask="url(#b)" xlink:href="#a"/>
        </g>
        <g fill="#FFF" fill-rule="nonzero">
            <path d="M40.34 11c-3.816 0-6.983 2.832-7.51 6.504h-7.086l-4.014-6.021a1.084 1.084 0 0 0-.902-.483h-6.504a1.084 1.084 0 0 0 0 2.168h5.924l2.89 4.336H18.66c-.88 0-1.394.997-.882 1.714l10.638 14.893v7.494a5.429 5.429 0 0 0-4.336 5.311c0 .599.485 1.084 1.084 1.084h8.672c.599 0 1.084-.485 1.084-1.084a5.43 5.43 0 0 0-4.336-5.31V34.11l6.24-8.737c2.486 1.153 5.183 1.083 7.47-.287 2.286-1.37 3.706-3.86 3.706-6.5C48 14.405 44.564 11 40.34 11zM22.59 22.185c-.27-.327.43.642-1.824-2.513h3.818l2.778 4.168a4.802 4.802 0 0 1-4.772-1.655zm9.976 23.647h-6.132a3.258 3.258 0 0 1 3.066-2.168c1.413 0 2.619.906 3.066 2.168zM29.5 31.899l-4.131-5.784a6.932 6.932 0 0 0 4.8-1.107 4.738 4.738 0 0 1 4.54-.401L29.5 31.899zm6.517-9.125a6.948 6.948 0 0 0-6.67.135l-2.157-3.237h11.043l-2.216 3.102zm7.163.453c-1.52.91-3.328 1.023-5.065.341l2.363-3.309 1.263 1.263a1.084 1.084 0 1 0 1.533-1.533l-1.401-1.401 1.401-1.402a1.084 1.084 0 1 0-1.533-1.533l-1.401 1.402-1.402-1.402a1.084 1.084 0 1 0-1.533 1.533l.318.318h-2.694a5.43 5.43 0 0 1 5.31-4.336c3.03 0 5.493 2.431 5.493 5.42 0 1.91-.991 3.645-2.652 4.64z"/>
            <path d="M17.686 37.294a4.122 4.122 0 0 1 1.106-1.984l.635-.635a1.084 1.084 0 1 0-1.533-1.533l-.635.635a6.27 6.27 0 0 0-1.773 3.476C12.976 37.717 11 39.911 11 42.58c0 2.996 2.496 5.42 5.492 5.42a5.426 5.426 0 0 0 5.42-5.42c0-2.578-1.81-4.74-4.226-5.286zm-1.194 8.538c-1.802 0-3.324-1.49-3.324-3.252 0-1.763 1.522-3.252 3.324-3.252a3.256 3.256 0 0 1 3.252 3.252 3.256 3.256 0 0 1-3.252 3.252z"/>
        </g>
    </g>
</svg>
