<svg xmlns="http://www.w3.org/2000/svg" xmlns:xlink="http://www.w3.org/1999/xlink" width="58" height="58" viewBox="0 0 58 58">
    <defs>
        <ellipse id="a" cx="27" cy="27" rx="27" ry="27"/>
        <mask id="b" width="58" height="58" x="-2" y="-2">
            <path fill="#fff" d="M-2-2h58v58H-2z"/>
            <use xlink:href="#a"/>
        </mask>
    </defs>
    <g fill="none" fill-rule="evenodd">
        <g transform="translate(2 2)">
            <use fill="#EB2329" xlink:href="#a"/>
            <use stroke="#FFF" stroke-width="4" mask="url(#b)" xlink:href="#a"/>
        </g>
        <g fill="#FFF" fill-rule="nonzero">
            <path d="M47.4 17.69l-2.567-1.283-1.283-2.568c-.4-.798-1.541-.796-1.94 0l-1.283 2.568-2.568 1.284c-.798.399-.796 1.54 0 1.939l2.568 1.283 1.283 2.568c.4.798 1.541.796 1.94 0l1.283-2.568 2.568-1.283c.798-.4.796-1.541 0-1.94zm-3.86 1.446c-.21.105-.38.275-.484.485l-.476.951-.476-.951a1.084 1.084 0 0 0-.485-.485l-.951-.476.952-.476c.21-.105.38-.275.484-.484l.476-.952.476.952c.105.21.275.38.485.484l.951.476-.951.476zM21.24 15.45l-2.567-1.283-1.283-2.568c-.4-.798-1.541-.796-1.94 0l-1.283 2.568-2.568 1.283c-.798.4-.796 1.541 0 1.94l2.568 1.283 1.283 2.568c.4.798 1.541.796 1.94 0l1.283-2.568 2.568-1.284c.798-.399.796-1.54 0-1.939zm-3.86 1.446c-.21.105-.38.275-.484.484l-.476.952-.476-.952a1.084 1.084 0 0 0-.485-.484l-.951-.476.951-.476c.21-.105.38-.275.485-.485l.476-.951.476.951c.105.21.275.38.484.485l.952.476-.952.476zM43.592 33.833c-.002-6.556-4.535-12.214-10.84-13.71V18.66a3.257 3.257 0 0 0-2.168-3.065v-3.511a1.084 1.084 0 0 0-2.168 0v3.51a3.257 3.257 0 0 0-2.168 3.066v1.464c-6.21 1.472-10.84 7.063-10.84 13.712C15.408 41.61 21.716 48 29.5 48c7.773 0 14.09-6.38 14.092-14.161v-.003-.003zm-3.473-5.417a11.833 11.833 0 0 1 1.255 4.336h-4.308a25.143 25.143 0 0 0-.54-4.336h3.593zm-1.428-2.168h-2.76c-.387-1.153-.894-2.284-1.538-3.285a11.99 11.99 0 0 1 4.298 3.285zm-3.794 6.504h-4.313v-4.336h3.72a22.53 22.53 0 0 1 .593 4.336zm-1.27-6.504h-3.043v-4.066c1.436.71 2.458 2.567 3.043 4.066zm-9.02-3.285c-.645 1.001-1.151 2.133-1.539 3.285h-2.76a11.99 11.99 0 0 1 4.299-3.285zm-5.726 5.446h3.594a25.22 25.22 0 0 0-.541 4.343h-4.308a11.87 11.87 0 0 1 1.255-4.343zm-.017 10.847a11.958 11.958 0 0 1-1.239-4.336h4.309c.059 1.506.242 2.966.538 4.336h-3.608zm1.408 2.168h2.789c.388 1.168.904 2.332 1.564 3.359a12 12 0 0 1-4.353-3.36zm8.144 4.134c-1.445-.724-2.47-2.622-3.054-4.134h3.054v4.134zm0-6.302h-3.723a22.725 22.725 0 0 1-.59-4.336h4.313v4.336zm0-6.504h-4.313a22.53 22.53 0 0 1 .594-4.336h3.719v4.336zm0-6.504h-3.043c.585-1.498 1.606-3.355 3.043-4.066v4.066zm0-6.504V18.66a1.085 1.085 0 0 1 2.168 0v1.084h-2.168zm2.168 25.814v-4.141h3.054c-.583 1.51-1.608 3.416-3.054 4.141zm0-6.302v-4.343h4.313a22.802 22.802 0 0 1-.59 4.343h-3.723zm3.79 5.527c.661-1.027 1.177-2.199 1.565-3.366h2.79a12.018 12.018 0 0 1-4.354 3.366zm5.762-5.527h-3.608c.296-1.37.479-2.838.538-4.343h4.309a11.995 11.995 0 0 1-1.24 4.343z"/>
        </g>
    </g>
</svg>
