<svg xmlns="http://www.w3.org/2000/svg" width="25" height="25" viewBox="0 0 25 25">
    <path fill="#E8E8E8" fill-rule="nonzero" d="M24.781 23.725l-6.075-6.075a10.617 10.617 0 0 0 2.616-6.99C21.322 4.778 16.538 0 10.662 0 4.781 0 .002 4.784.002 10.66c0 5.875 4.785 10.66 10.66 10.66 2.672 0 5.117-.987 6.99-2.617l6.076 6.075a.753.753 0 0 0 .526.222.75.75 0 0 0 .527-1.275zM1.494 10.66c0-5.056 4.113-9.163 9.163-9.163 5.055 0 9.163 4.113 9.163 9.163s-4.108 9.168-9.163 9.168c-5.05 0-9.163-4.113-9.163-9.168z"/>
</svg>
