<svg xmlns="http://www.w3.org/2000/svg" xmlns:xlink="http://www.w3.org/1999/xlink" width="32" height="32" viewBox="0 0 32 32">
    <defs>
        <circle id="a" cx="14" cy="14" r="14"/>
        <mask id="b" width="32" height="32" x="-2" y="-2">
            <path fill="#fff" d="M-2-2h32v32H-2z"/>
            <use xlink:href="#a"/>
        </mask>
    </defs>
    <g fill="none" fill-rule="evenodd">
        <g transform="translate(2 2)">
            <use fill="#4A524E" xlink:href="#a"/>
            <use stroke="#FFF" stroke-width="4" mask="url(#b)" xlink:href="#a"/>
        </g>
        <path fill="#FFF" d="M14.974 19.746c0-.91.112-1.634.338-2.174.226-.54.672-1.133 1.338-1.779.667-.646 1.089-1.105 1.267-1.379.273-.417.41-.868.41-1.353 0-.643-.16-1.134-.477-1.472-.318-.338-.785-.507-1.4-.507-.588 0-1.061.165-1.42.497-.359.331-.538.78-.538 1.348H12c.014-1.21.426-2.167 1.236-2.87C14.046 9.351 15.117 9 16.45 9c1.374 0 2.446.349 3.215 1.046.769.697 1.153 1.671 1.153 2.922 0 1.115-.52 2.212-1.558 3.292l-1.261 1.24c-.452.513-.684 1.262-.698 2.246h-2.327zm-.175 3.19c0-.404.127-.73.38-.98s.594-.374 1.025-.374c.438 0 .783.128 1.036.384s.38.58.38.97a1.3 1.3 0 0 1-.37.942c-.246.253-.595.38-1.046.38-.451 0-.798-.127-1.04-.38a1.31 1.31 0 0 1-.365-.943z"/>
    </g>
</svg>
