<svg xmlns="http://www.w3.org/2000/svg" width="80" height="73" viewBox="0 0 80 73">
    <g fill="#000" fill-rule="nonzero">
        <path d="M34.652 34.747h-7.997v18.659h2.666v-7.997h5.33c2.933 0 5.332-2.399 5.332-5.33 0-2.933-2.4-5.332-5.331-5.332zm0 7.997H29.32v-5.331h5.33c1.6 0 2.666 1.066 2.666 2.665 0 1.6-1.066 2.666-2.665 2.666zM50.645 34.747h-7.997v18.659h7.997c2.932 0 5.33-2.4 5.33-5.331v-7.997c0-2.932-2.398-5.33-5.33-5.33zm2.665 13.328c0 1.6-1.066 2.665-2.665 2.665h-5.331V37.413h5.33c1.6 0 2.666 1.066 2.666 2.665v7.997z"/>
        <path d="M71.969 26.75H50.645v-7.996L34.652.096H5.33C2.399.096 0 2.495 0 5.426v61.308c0 2.932 2.399 5.33 5.331 5.33h39.983c2.932 0 5.33-2.398 5.33-5.33v-5.331H71.97c4.531 0 7.996-3.466 7.996-7.997V34.747c0-4.531-3.465-7.996-7.996-7.996zM34.652 4.095l12.528 14.66h-9.863c-1.333 0-2.665-1.332-2.665-2.665V4.094zm13.327 62.64c0 1.332-1.066 2.665-2.665 2.665H5.33c-1.333 0-2.665-1.066-2.665-2.666V5.427c0-1.333 1.066-2.666 2.665-2.666h26.655V16.09c0 2.932 2.399 5.33 5.331 5.33H47.98v5.332H26.655c-4.531 0-7.996 3.465-7.996 7.996v18.659c0 4.531 3.465 7.997 7.996 7.997H47.98v5.33zM77.3 53.405c0 2.932-2.398 5.331-5.33 5.331H26.655c-2.932 0-5.331-2.399-5.331-5.331V34.747c0-2.932 2.399-5.33 5.331-5.33H71.97c2.932 0 5.33 2.398 5.33 5.33v18.659z"/>
        <path d="M58.641 53.406h2.666v-7.997h7.996v-2.665h-7.996v-5.331h10.662v-2.666H58.64z"/>
    </g>
</svg>
