<svg xmlns="http://www.w3.org/2000/svg" width="50" height="50" viewBox="0 0 50 50">
    <g fill="none" fill-rule="nonzero">
        <circle cx="24.823" cy="24.822" r="24.822" fill="#FFF"/>
        <path fill="#4A524E" d="M40.027 17.839c-1.064.472-2.208.79-3.408.933a5.95 5.95 0 0 0 2.61-3.282 11.877 11.877 0 0 1-3.768 1.44 5.927 5.927 0 0 0-4.332-1.873 5.934 5.934 0 0 0-5.779 7.285 16.842 16.842 0 0 1-12.23-6.2 5.908 5.908 0 0 0-.803 2.983 5.933 5.933 0 0 0 2.64 4.939 5.891 5.891 0 0 1-2.688-.743v.075a5.937 5.937 0 0 0 4.76 5.817 5.912 5.912 0 0 1-2.68.103 5.94 5.94 0 0 0 5.543 4.12 11.904 11.904 0 0 1-7.37 2.54c-.478 0-.951-.028-1.414-.083a16.783 16.783 0 0 0 9.094 2.666c10.913 0 16.881-9.04 16.881-16.882 0-.257-.006-.513-.017-.767a12.032 12.032 0 0 0 2.961-3.071z"/>
    </g>
</svg>
