<svg xmlns="http://www.w3.org/2000/svg" width="54" height="54" viewBox="0 0 54 54">
    <g fill="none" fill-rule="evenodd">
        <circle cx="27" cy="27" r="27" fill="#EB2329"/>
        <path fill="#FFF" fill-rule="nonzero" d="M43.456 13.814c-.29-.202-.659-.25-.99-.128l-10.214 3.752-10.214-3.752a1.081 1.081 0 0 0-.745 0l-10.585 3.889A1.08 1.08 0 0 0 10 18.589v21.172a1.08 1.08 0 0 0 1.453 1.014l10.213-3.752 10.213 3.752c.24.088.505.088.745 0l10.586-3.89a1.08 1.08 0 0 0 .708-1.013V14.7a1.08 1.08 0 0 0-.462-.886zm-20.71 2.434l8.425 3.095v18.87l-8.425-3.095v-18.87zm-10.585 3.095l8.424-3.095v18.87l-8.424 3.095v-18.87zm29.596 15.775l-8.425 3.095v-18.87l8.425-3.095v18.87z"/>
    </g>
</svg>
