<svg xmlns="http://www.w3.org/2000/svg" width="54" height="54" viewBox="0 0 54 54">
    <g fill="none" fill-rule="evenodd">
        <ellipse cx="27" cy="27" fill="#FFF" rx="27" ry="27"/>
        <g fill="#221E1F" fill-rule="nonzero">
            <path d="M42.597 10a1.3 1.3 0 0 0-1.3 1.301v31.296a1.3 1.3 0 1 0 2.601 0V11.301a1.3 1.3 0 0 0-1.3-1.3zM11.301 10A1.3 1.3 0 0 0 10 11.301v31.296a1.3 1.3 0 1 0 2.602 0V11.301a1.3 1.3 0 0 0-1.301-1.3zM25.645 16.263h-2.61V11.3a1.3 1.3 0 1 0-2.603 0v4.962h-2.61a1.3 1.3 0 0 0-1.302 1.301v7.824a1.3 1.3 0 0 0 1.301 1.301h2.611v15.908a1.3 1.3 0 1 0 2.602 0V26.69h2.611a1.3 1.3 0 0 0 1.301-1.301v-7.824c0-.719-.582-1.301-1.301-1.301zm-1.301 7.824h-5.222v-5.222h5.222v5.222zM36.077 27.21h-2.61V11.3a1.3 1.3 0 1 0-2.603 0V27.21h-2.61a1.3 1.3 0 0 0-1.302 1.301v7.824a1.3 1.3 0 0 0 1.301 1.301h2.611v4.962a1.3 1.3 0 1 0 2.602 0v-4.962h2.611a1.3 1.3 0 0 0 1.301-1.3V28.51a1.3 1.3 0 0 0-1.301-1.3zm-1.301 7.823h-5.222v-5.222h5.222v5.222z"/>
        </g>
    </g>
</svg>
