<svg xmlns="http://www.w3.org/2000/svg" width="54" height="54" viewBox="0 0 54 54">
    <g fill="none" fill-rule="evenodd">
        <ellipse cx="27" cy="27" fill="#EB2329" rx="27" ry="27"/>
        <path fill="#FFF" fill-rule="nonzero" d="M36.797 21.293c-.971 0-1.857.388-2.524 1.024a3.648 3.648 0 0 0-2.524-1.024c-.972 0-1.859.388-2.526 1.024a3.755 3.755 0 0 0-.926-.646 9.261 9.261 0 0 0 1.94-5.681c0-4.957-3.852-8.99-8.586-8.99-4.735 0-8.588 4.033-8.588 8.99 0 3.451 1.91 6.592 4.832 8.083v10.965c0 6.538 5.082 11.858 11.327 11.858 6.247 0 11.329-5.32 11.329-11.858v-9.815c0-2.167-1.684-3.93-3.754-3.93zM15.523 15.99c0-3.537 2.749-6.415 6.128-6.415 3.378 0 6.126 2.878 6.126 6.415 0 2.009-.907 3.87-2.372 5.067V15.99c0-2.168-1.684-3.932-3.754-3.932-2.071 0-3.756 1.764-3.756 3.932v5.066c-1.466-1.195-2.372-3.057-2.372-5.066zM38.09 35.038c0 5.119-3.979 9.283-8.869 9.283s-8.867-4.164-8.867-9.283V23.29a1.3 1.3 0 0 0 0-.13v-7.17c0-.748.581-1.357 1.296-1.357.714 0 1.294.609 1.294 1.357v12.057c0 .711.55 1.288 1.23 1.288.68 0 1.23-.577 1.23-1.288v-2.824c0-.747.58-1.355 1.294-1.355.713 0 1.294.608 1.294 1.355v2.824c0 .711.55 1.288 1.23 1.288.679 0 1.23-.577 1.23-1.288v-2.824c0-.747.581-1.355 1.296-1.355.714 0 1.294.608 1.294 1.355v2.824c0 .711.55 1.288 1.23 1.288.68 0 1.23-.577 1.23-1.288v-2.824c0-.747.58-1.355 1.294-1.355.714 0 1.294.608 1.294 1.355v9.815z"/>
    </g>
</svg>
