<svg xmlns="http://www.w3.org/2000/svg" width="54" height="54" viewBox="0 0 54 54">
    <g fill="none" fill-rule="evenodd">
        <ellipse cx="27" cy="27" fill="#FFF" rx="27" ry="27"/>
        <path fill="#000" fill-rule="nonzero" d="M40.99 17.537v-6.568a.977.977 0 0 0-.396-.781.992.992 0 0 0-.87-.144L20.095 16.26a.97.97 0 0 0-.676.925v19.15c-1.028-.71-2.345-1.096-3.726-1.096-1.46 0-2.848.437-3.905 1.226-1.136.853-1.762 2.007-1.762 3.262 0 1.254.626 2.409 1.762 3.262 1.057.789 2.438 1.226 3.905 1.226 1.468 0 2.849-.437 3.906-1.226 1.136-.853 1.762-2.008 1.762-3.262V24.47l17.687-5.607V30.09c-1.029-.71-2.345-1.097-3.726-1.097-1.46 0-2.848.437-3.906 1.226-1.136.853-1.762 2.007-1.762 3.262s.626 2.409 1.762 3.262c1.058.789 2.439 1.226 3.906 1.226s2.848-.437 3.906-1.226c1.136-.853 1.762-2.007 1.762-3.262V17.537zM15.693 42.279c-2.02 0-3.725-1.169-3.725-2.552 0-1.384 1.704-2.553 3.725-2.553 2.022 0 3.726 1.169 3.726 2.553 0 1.39-1.704 2.552-3.726 2.552zm5.668-19.846v-4.545l17.687-5.6v4.546l-17.687 5.6zM35.33 36.034c-2.02 0-3.726-1.168-3.726-2.552 0-1.384 1.705-2.552 3.726-2.552s3.726 1.168 3.726 2.552c-.007 1.384-1.712 2.552-3.726 2.552z"/>
    </g>
</svg>
